<svg xmlns="http://www.w3.org/2000/svg" viewBox="0 0 314.77 403.49"><defs><style>.cls-1{fill:#487b42;}</style></defs><title>Asset 3</title><g id="Layer_2" data-name="Layer 2"><g id="Layer_1-2" data-name="Layer 1"><g id="Layer_2-2" data-name="Layer 2"><g id="Layer_1-2-2" data-name="Layer 1-2"><path class="cls-1" d="M314.25,385.19c-.08-.8-7.17-81.32-19.13-166.07-16.19-114.69-33.3-182.33-50.86-201L243,16.76l-1.78-.28c-1.26-.2-127-20.14-199-15.89L38.13.84,37.44,5c-.18,1-4.38,26-5.34,40l-.36,5.21L37,50.6l3.73.28-.62,4.27C39.85,56.63,18.8,200.67.47,369.26L0,373.57l4.15,1.27c72.05,22,175.41,28.65,184.23,28.65,8.53,0,35-4.46,60.9-15.19l65.49,2.85ZM241.44,32c10.95,18.65,26.19,67.53,43.27,188.58,9.08,64.3,15.35,126.16,17.85,152.4-17.89-17.84-44-31.2-53.28-35.63v-.45c0-1.47.39-149-14.4-265.91l-.4-3.23ZM224,68.46l.48,3.82c14.41,113.92,14.33,257.38,14.31,264.29-5,2.43-13.77,9.24-31.64,27.51-5,5.16-9.94,10.35-14.09,14.82,4.93-150,23.08-292.06,25.58-311.06ZM47.11,10.86C108,8.12,204.34,21.57,232,25.68l-6.31,32.4C145.13,48.69,64.17,42.21,43,40.57,44.05,30.51,46.06,17.43,47.11,10.86Zm3.34,45.85.72-5c27.5,2.2,91,7.53,157,14.92-2.68,20.45-21.7,169.73-26,324.15l-.89,1-.74.84C154.41,391.08,72.66,384,11.38,366.05,29.58,199.54,50.24,58.13,50.45,56.71Zm196.94,321-1.09.46a220.77,220.77,0,0,1-51.48,14.29c19.56-21.56,41.6-43.4,48.36-46.4,6.68,3.13,33.6,16.33,51.35,33.7Z"/></g></g></g></g></svg>