<svg xmlns="http://www.w3.org/2000/svg" viewBox="0 0 515.35 403.49"><defs><style>.cls-1{fill:#487b42;}</style></defs><title>Asset 2</title><g id="Layer_2" data-name="Layer 2"><g id="Layer_1-2" data-name="Layer 1"><g id="Layer_2-2" data-name="Layer 2"><g id="Layer_1-2-2" data-name="Layer 1-2"><path class="cls-1" d="M367.83,403.45a37.16,37.16,0,0,1-37.13-37v-.09a37.15,37.15,0,0,1,37.05-37.13h.08a37.13,37.13,0,0,1,.08,74.26Zm0-61.33h0a24.2,24.2,0,0,0,0,48.4h.05a24.2,24.2,0,0,0-.05-48.4Zm-161,61.32a37.13,37.13,0,0,1-37.13-37v-.14a37.13,37.13,0,0,1,37-37.13h.14a37.13,37.13,0,0,1,.14,74.25Zm0-61.32h-.11a24.2,24.2,0,0,0,.11,48.39h.07a24.2,24.2,0,0,0-.1-48.39Z"/><path class="cls-1" d="M436.61,160.39h-.1l-19.94,87.37H156.63c-.34-1.07-.66-2.1-1-3.23-8-26.15-16.27-59.86-24.25-92.46-5.2-21.28-9.9-40.24-14.26-56.72H359.43a75.54,75.54,0,0,1-2.15-12.93H113.62c-9.34-33.77-17.24-55-25.52-61.88-9.38-7.79-19.25-7.54-45.65-7-9.4.23-21.11.48-36,.48a6.47,6.47,0,1,0,0,12.93c15,0,26.79-.24,36.26-.45,25.43-.54,31.65-.49,37.09,4,10.71,8.87,26.38,73.07,39,124.67,20.82,85.15,34.65,137.48,51.16,146.65l.87.48c12.2,6.81,14.85,8.29,54.36,8.29,11,0,24.87-.11,42.6-.26,33-.28,78.28-.64,143.71-.64a6.47,6.47,0,0,0,0-12.94c-65.48,0-110.76.37-143.82.65-77.93.64-77.93.64-90.53-6.39l-.9-.5c-2-1.08-7-6.25-15.34-29.82H421.67a6.47,6.47,0,0,0,6.28-5l22.18-96.59A76.55,76.55,0,0,1,436.61,160.39Z"/><path class="cls-1" d="M440.09,0a75.28,75.28,0,1,0,75.26,75.28v0A75.27,75.27,0,0,0,440.09,0Zm-8.25,120.83L395,83.58l9.16-9.09,26.41,26.7,48.68-63.47,10.27,7.87Z"/></g></g></g></g></svg>