<svg xmlns="http://www.w3.org/2000/svg" viewBox="0 0 357.71 403.49"><defs><style>.cls-1{fill:#487b42;}.cls-2{fill:#e3e8e3;}</style></defs><title>Asset 4</title><g id="Layer_2" data-name="Layer 2"><g id="Layer_1-2" data-name="Layer 1"><circle class="cls-1" cx="178.85" cy="178.85" r="178.85"/><circle class="cls-2" cx="94.93" cy="182.63" r="58.05"/><path class="cls-1" d="M155.59,182.52a55.81,55.81,0,0,1-1,11.11s-18.65,8.59-59.62,8.59c-42,0-59.41-7.55-59.41-7.55a59.14,59.14,0,0,1-1.26-12.25,60.67,60.67,0,1,1,121.33.1Z"/><path class="cls-2" d="M94.93,204.94c-42.12,0-59.73-7.44-60.46-7.75l-1.26-.52-.31-1.37a65.08,65.08,0,0,1-1.26-12.78,63.29,63.29,0,0,1,126.57,0,61,61,0,0,1-1.05,11.63l-.2,1.36-1.37.53C154.86,196.46,136,204.94,94.93,204.94ZM37.82,192.79c4.61,1.57,22.43,6.91,57.11,6.91,34,0,52.49-6.07,57.31-7.85a55.19,55.19,0,0,0,.73-9.22,58,58,0,1,0-116.09,0A56.33,56.33,0,0,0,37.82,192.79Z"/><circle class="cls-1" cx="94.93" cy="196.98" r="19.17"/><path class="cls-2" d="M48.72,104.15c.94-6.81,16.56-30.6,43-34.05C115.67,67,138.41,84.55,138.3,89c0,2.2-15-7.65-51-1.89C63.91,90.74,48.2,107.29,48.72,104.15Z"/><circle class="cls-2" cx="253.14" cy="182.63" r="58.05"/><path class="cls-1" d="M192.47,182.52a55.81,55.81,0,0,0,1.05,11.11s18.65,8.59,59.62,8.59c42,0,59.41-7.55,59.41-7.55a59.14,59.14,0,0,0,1.26-12.25,60.67,60.67,0,1,0-121.34.1Z"/><path class="cls-2" d="M253.14,204.94c-41.07,0-59.93-8.48-60.77-8.9l-1.26-.53-.21-1.36a61.82,61.82,0,0,1-1.05-11.63,63.29,63.29,0,0,1,126.57,0,65.07,65.07,0,0,1-1.25,12.78l-.32,1.37-1.25.52C312.86,197.5,295.26,204.94,253.14,204.94Zm-57.31-13.09c4.71,1.78,23.26,7.85,57.31,7.85,34.68,0,52.49-5.23,57.1-6.91a55.74,55.74,0,0,0,.95-10.27,58.05,58.05,0,0,0-116.1,0A54.55,54.55,0,0,0,195.83,191.85Z"/><circle class="cls-1" cx="253.14" cy="196.98" r="19.17"/><path class="cls-2" d="M299.35,104.15c-1-6.81-16.56-30.6-43-34.05C232.39,67,209.66,84.55,209.76,89c0,2.2,14.88-7.65,51-1.89C284.15,90.74,299.77,107.29,299.35,104.15Z"/><path class="cls-2" d="M98.7,274.2c72.82,36.36,141.24,21.58,172.88,0C260.89,311.61,147.73,333.82,98.7,274.2Z"/><path class="cls-1" d="M187.55,313.6c-32.06,0-67.9-9.75-91-37.83l-7.75-9.53,11,5.45c67.69,33.73,135.69,23.78,170.26.2l6-4.08-2,7c-4.51,15.82-25.68,29.44-55.22,35.62A154.89,154.89,0,0,1,187.55,313.6Zm-77.33-31.23c30.29,26.93,75.65,29.65,107.61,23.05,21.9-4.5,39.29-13.51,47.25-24.1C229.88,300.6,170.58,307.83,110.22,282.37Z"/><path class="cls-2" d="M205.89,297.57s52.28,70.61,76.38,94.61c7.12,7.12,14.88,8.07,22.63,1.05,7.65-6.81,6.91-15.93-.63-23.37-23.89-23.89-84.13-74.6-84.13-74.6Z"/><path class="cls-2" d="M320.51,354.56c17.39-36.88-3.35-51.65-11.73-64.12C298.09,274.51,320,240.67,320,240.67s-32.8,16.66-28.71,48.72C293.9,309.82,324.81,312.65,320.51,354.56Z"/><path class="cls-1" d="M318,363.47l.94-9.12c2.62-25.14-7.75-35.72-16.87-45-5.76-5.86-11.21-11.42-12.26-19.8-4.19-32.79,29.23-50.19,29.55-50.4l5.24-2.61-3.15,4.92c-.21.31-21.27,33.11-11.21,48,1.26,1.88,2.94,4,4.61,6.07,9.43,11.63,22.22,27.67,7.13,59.62Zm-2.62-118.08c-8.91,6.28-25.36,21.16-22.53,43.79.94,7.34,5.76,12.26,11.42,18,8.07,8.18,17.81,18.13,18.13,38.46,8.59-24.62-1.68-37.51-10.17-48.09-1.78-2.21-3.45-4.3-4.82-6.29C298.93,278.5,309.51,255.86,315.38,245.39Z"/><path class="cls-1" d="M307.73,366.3c-23.79-23.79-82-72.82-84.45-74.92l-1.68-1.57-2.41.42-14.25,2.31-8.48,1.36,5.13,6.91c2.1,2.94,52.81,71.15,76.8,95.24,4.93,4.93,10.16,7.44,15.51,7.44,4.92,0,9.74-2.09,14.25-6.18s6.91-9,7.12-14.35C315.38,377.09,312.86,371.33,307.73,366.3ZM205.89,297.67l14.25-2.31s60.12,50.51,84.06,74.53a27.61,27.61,0,0,0-24.81,19.43C254.33,363,205.89,297.67,205.89,297.67Z"/><g id="Layer_2-2" data-name="Layer 2"><path class="cls-1" d="M232.14,314.41l.2-.1c.8-.3.89-.6,0-1.39s-1.29-1-2.08-.69c-.6.19-.79.39-.69.69.09.1.19.3.29.4l.2.2.2.19.2.2a4.22,4.22,0,0,1,.79,1.09c.4.8.1,1.29-1.29,1.79a4.73,4.73,0,0,1-2.38.39c-.79-.19-1.29-.59-2.28-1.78a4.21,4.21,0,0,1-.89-1.39c-.1-.49.2-.89.89-1.19.2-.1.5-.2.7-.3l.19-.1.8.9c-.6.2-.8.29-.9.49s-.09.4.6,1.19,1.09,1,2.18.6c.6-.2.7-.4.6-.7s-.2-.29-.3-.49l-.2-.2h0l-.2-.2a5.35,5.35,0,0,1-.69-.89c-.5-.79-.1-1.19,1.19-1.69a4.38,4.38,0,0,1,2.08-.29,4.82,4.82,0,0,1,2.08,1.38c.9.9,1.19,1.29,1.29,1.69s-.39.79-1.29,1.09l-.29.1Z"/><path class="cls-1" d="M237.3,316.09l2.78,2.68,1,1c.69.7.79,1.39.3,2a6,6,0,0,1-1.69,1c-1.88.79-3.07.79-4.26-.1-.3-.2-.3-.2-1.49-1.49l-1.39-1.49-2.88,1.09-1.09-1.28Zm-1.88,4.37c1.19,1.19,1.48,1.29,2.87.79,1.09-.5,1.39-.69,1.09-1.09-.1-.2-.19-.3-.69-.79l-1.59-1.59L234,319Z"/><path class="cls-1" d="M238.09,327.7l-2.38.29-1.48-1.78,12.49-1.29,2.68,2.58L242,335.83l-1.78-2.28,1.48-1.59Zm8.53-.9-6.74.7,3,3.27Z"/><path class="cls-1" d="M255.75,333.35l6.64,6.25c3.77,3.57,4.27,5.35,1.39,6.84-2.58,1.39-3.87,1.09-6.45-1.09h-.1c1.69,2,1.69,3.27,0,4.16l-3,1.49-2.78-3.37,2.38-1.19c.8-.4,1.09-.79,1.09-1.39a3.3,3.3,0,0,0-1.19-2l-3.47-3.87-4.06,1.88-2.09-2.57Zm.2,8.83a6.69,6.69,0,0,0,2.18,1.68c.69.3,1.19.2,2.28-.3,1.68-.89,1.68-1.38-.2-3.17l-3.87-3.77-4,1.89Z"/><path class="cls-1" d="M270.92,355.86l1.88,2,13.79,4.27,6.74,6.35-18.15-6,3.18,18.15L272,372.82l-1.68-13.49-1.89-2-6.25,3.57-3.47-4.17,13.69-7.53,3.87,3.67Z"/></g><path class="cls-2" d="M298.52,380.55a5.44,5.44,0,0,0-.57,0l-.54,0v1.21l0,.11h0v1.3a3.31,3.31,0,0,1,.54-.06,3.68,3.68,0,0,1,.57.06v-1h0Zm-.55,1.29h0l0-.09,0,.09Z"/><path class="cls-2" d="M292.58,387.82v0H294a3.53,3.53,0,0,1-.08-.72c0-.14,0-.26,0-.39h-1l-.08,0v0h-1.51c0,.13,0,.26,0,.39a5.79,5.79,0,0,0,0,.72h1.09Z"/><path class="cls-2" d="M293.7,383.91h0l.94.94a4.17,4.17,0,0,1,.76-.81l-.71-.72-.22-.21-.91-.91a7.19,7.19,0,0,0-.76.8Z"/><path class="cls-2" d="M303.63,382.4l1.62-1.62-.78-.78-1.61,1.61A9.57,9.57,0,0,1,303.63,382.4Z"/><path class="cls-2" d="M303.36,386.76v0h-1.43c0,.13,0,.25,0,.39a4.39,4.39,0,0,1-.07.72h2.62a5.79,5.79,0,0,0,0-.72c0-.13,0-.26,0-.39h-1.07Zm-.3.37h0Z"/><path class="cls-2" d="M302.11,390.74l-.22-.21-.86-.87a3.89,3.89,0,0,1-.81.76l1,1,.85.84a7.19,7.19,0,0,0,.8-.76Z"/><path class="cls-2" d="M294.57,391.46l1.07-1.07a3.84,3.84,0,0,1-.8-.76l-.84.84-.21.21-.79.79a5.75,5.75,0,0,0,.79.77l.78-.78Z"/><path class="cls-2" d="M290.56,387.12c0-.13,0-.26,0-.39h-6.2v1.11h6.22A5.79,5.79,0,0,1,290.56,387.12Z"/><path class="cls-2" d="M298,394.51l-.54,0v6.39h1.11v-6.39Z"/><path class="cls-2" d="M292.44,392l-1.86,1.86.78.78,1.87-1.87A9.57,9.57,0,0,1,292.44,392Z"/><path class="cls-2" d="M302.63,392.83l1.84,1.84.78-.78-1.83-1.83A6.38,6.38,0,0,1,302.63,392.83Z"/><path class="cls-2" d="M305.32,386.73c0,.13,0,.26,0,.39s0,.48,0,.72h6.26v-1.11Z"/><path class="cls-2" d="M298,379.73l.57,0v-6.07h-1.11v6.07Z"/><path class="cls-2" d="M302.3,382.17l-.89.89-.22.22-.73.73a3.84,3.84,0,0,1,.76.8l1-1h0l.89-.89A5.75,5.75,0,0,0,302.3,382.17Z"/><path class="cls-2" d="M298.52,393.69v-1.06h0v-1.55a5.25,5.25,0,0,1-.57.05,4.93,4.93,0,0,1-.54-.05v2.61l.54,0Z"/><path class="cls-2" d="M293,381.64,291.36,380l-.78.78,1.66,1.66A6.46,6.46,0,0,1,293,381.64Z"/><path class="cls-2" d="M297.41,383.94v.43l0,.11h0v1.57l-.88-.88-.21-.21-.36-.37a3.29,3.29,0,0,0-.75.83l.36.35h0l.95,1h-1.76a2.45,2.45,0,0,0,0,.39,2.9,2.9,0,0,0,.09.72h1.82l-.78.77-.21.22-.25.24a3.24,3.24,0,0,0,.81.76l.23-.23.21-.21.77-.77v1.67a3.31,3.31,0,0,0,.54.06,3.43,3.43,0,0,0,.57-.06V390h0v-1.27l.71.7h0l.42.41a3,3,0,0,0,.82-.74l-.22-.22h0l-1.05-1.05h1.89a2.9,2.9,0,0,0,.09-.72,2.45,2.45,0,0,0,0-.39h-.29l-.11,0v0h-1.43l.8-.81.22-.21.33-.34a3.24,3.24,0,0,0-.76-.81l-.35.35-.21.22-.82.81v-1.16h0V384a2.62,2.62,0,0,0-.57-.06A3.29,3.29,0,0,0,297.41,383.94Zm-2.24,3.3h-.08l.08,0Z"/></g></g></svg>