<svg xmlns="http://www.w3.org/2000/svg" viewBox="0 0 278.83 402.88"><defs><style>.cls-1{fill:#487b42;}.cls-2{fill:#ecedea;}</style></defs><title>Asset 1</title><g id="Layer_2" data-name="Layer 2"><g id="Layer_1-2" data-name="Layer 1"><g id="Layer_2-2" data-name="Layer 2"><g id="Layer_1-2-2" data-name="Layer 1-2"><path class="cls-1" d="M252.12,189.69a21.72,21.72,0,0,0-16.31,7.13,28.57,28.57,0,0,0-1.85,2.24,37.09,37.09,0,0,0-7.52-13.91,20.55,20.55,0,0,0-15.39-6.86c-8.08,0-14.94,2.93-19.9,8.5a37.41,37.41,0,0,0-7.08-12.53,21.7,21.7,0,0,0-16.4-7.38,24.61,24.61,0,0,0-15.14,4.69c-.12-13.13-.2-26.16-.2-37,0-19-10.82-32.81-25.74-32.81-19.38,0-29.51,19.25-29.51,38.27,0,35.77-.32,92.58.18,124.37-8.25-10.9-19-20.74-32.66-23.56-9.39-1.94-18.29.54-26.45,7.36l-.4.37c-5.61,5.61-8.33,11.91-8.14,18.76.47,16.23,17.35,31.26,33.67,45.79,9.74,8.67,19.82,17.65,23.56,24.85.89,1.69,1.78,3.43,2.68,5.2,12.81,25.22,30.37,59.74,97.62,59.74a85.34,85.34,0,0,0,48.94-15.43,89.39,89.39,0,0,0,33.24-44c9.51-26.79,9.51-80.61,9.51-116.23v-1.69C278.84,209,271.85,189.69,252.12,189.69Zm14.37,37.59c0,34.78,0,87.31-8.78,112.09-11.06,31.11-38.74,51.2-70.55,51.2-59.68,0-74-28.15-86.62-53-.94-1.8-1.83-3.59-2.74-5.31-4.81-9.21-15.25-18.51-26.31-28.35-13.7-12.2-29.17-26-29.53-36.93-.1-3.37,1.28-6.36,4.33-9.48,5.12-4.21,10.29-5.7,15.81-4.57,16.41,3.37,45.8,42.26,45.8,42.26s1.49-104.74,1.52-155.15c0-10.43,4.57-25.94,17.17-25.94,7.77,0,13.4,8.61,13.4,20.47,0,18.84,0,84.42.51,93.47.18,3,.34,5.91.42,8.44v2.76h0c.45,6.14,4.81,6.21,5,6.21,10,0,6.73-12,6.73-46.64.79-6.74,2.46-12.64,5.74-16.11,2.24-2.38,5.16-3.49,9.15-3.49a9.26,9.26,0,0,1,7.25,3.37c4.35,4.78,6.74,13.52,7.86,22.9,0,16.76.55,35,.55,35v.44a6.45,6.45,0,0,0,12.9,0h0V202.6a22.16,22.16,0,0,1,3.75-7.17c2.7-3.26,6.2-4.77,11-4.77a8.17,8.17,0,0,1,6.33,2.88c3.9,4.22,6.07,11.93,7.23,20.1v26.1a6.73,6.73,0,0,0,13.05,2.3h.08a1.31,1.31,0,0,0,0-.28,6.56,6.56,0,0,0,.31-2v-4.43c.07-2.34.08-5.17,0-8.27v-1.45c.81-7.7,2.72-16,6.81-20.4A9.31,9.31,0,0,1,252,202c13.68,0,14.38,19.58,14.38,23.51Z"/><path id="Shape_2_copy_7" data-name="Shape 2 copy 7" class="cls-2" d="M69.85,143,28.48,173.64"/><path class="cls-1" d="M28.49,178.51a4.88,4.88,0,0,1-2.91-8.79L66.91,139a4.89,4.89,0,1,1,5.82,7.85h0L31.39,177.55A4.9,4.9,0,0,1,28.49,178.51Z"/><path id="Shape_2_copy_8" data-name="Shape 2 copy 8" class="cls-2" d="M56.3,101.76,5.16,95.68"/><path class="cls-1" d="M56.31,106.63h-.58l-51.15-6.1a4.88,4.88,0,0,1,.61-9.75,4.43,4.43,0,0,1,.51.06l51.15,6.07a4.88,4.88,0,0,1-.57,9.72Z"/><path id="Shape_2_copy_9" data-name="Shape 2 copy 9" class="cls-2" d="M73.22,68.49,41.6,27.92"/><path class="cls-1" d="M73.22,73.36a4.88,4.88,0,0,1-3.85-1.88L37.76,30.92a4.87,4.87,0,1,1,7.69-6L77.09,65.48a4.87,4.87,0,0,1-.86,6.83,4.94,4.94,0,0,1-3,1Z"/><path id="Shape_2_copy_10" data-name="Shape 2 copy 10" class="cls-2" d="M109.41,55.7l6.12-51.06"/><path class="cls-1" d="M109.42,60.57h-.58a4.9,4.9,0,0,1-4.27-5.42l6.11-51.09a4.88,4.88,0,0,1,9.68,1.13l-6.1,51A4.89,4.89,0,0,1,109.42,60.57Z"/><path id="Shape_2_copy_12" data-name="Shape 2 copy 12" class="cls-2" d="M195.2,48.2,153.87,78.89"/><path class="cls-1" d="M153.87,83.76A4.87,4.87,0,0,1,151,75L192.3,44.27a4.89,4.89,0,0,1,5.81,7.86L156.78,82.81A4.89,4.89,0,0,1,153.87,83.76Z"/></g></g></g></g></svg>