<svg xmlns="http://www.w3.org/2000/svg" viewBox="0 0 248.23 359.26"><defs><style>.cls-1{fill:#487b42;}.cls-2{fill:#ecedea;}</style></defs><title>Asset 1</title><g id="Layer_2" data-name="Layer 2"><g id="Layer_1-2" data-name="Layer 1"><path class="cls-1" d="M224.42,169.25a19.31,19.31,0,0,0-14.53,6.35,24.53,24.53,0,0,0-1.65,2,33.1,33.1,0,0,0-6.7-12.4,18.31,18.31,0,0,0-13.72-6.11c-7.2,0-13.31,2.61-17.73,7.57a33.36,33.36,0,0,0-6.31-11.16,19.33,19.33,0,0,0-14.61-6.58,21.94,21.94,0,0,0-13.5,4.18c-.1-11.7-.17-23.31-.17-33,0-16.94-9.65-29.24-22.94-29.24-17.27,0-26.3,17.16-26.3,34.11,0,31.87-.28,82.5.16,110.83-7.35-9.72-16.94-18.49-29.1-21-8.37-1.73-16.3.48-23.57,6.56l-.36.33c-5,5-7.42,10.61-7.25,16.72.42,14.46,15.46,27.85,30,40.8,8.68,7.73,17.66,15.73,21,22.15.79,1.5,1.58,3.05,2.38,4.63,11.42,22.47,27.07,53.24,87,53.24a76.15,76.15,0,0,0,43.61-13.75,79.66,79.66,0,0,0,29.62-39.2c8.47-23.87,8.47-71.83,8.47-103.57V201.2C248.23,186.46,242,169.25,224.42,169.25Zm12.81,33.49c0,31,0,77.81-7.83,99.89-9.85,27.72-34.52,45.63-62.87,45.63-53.18,0-65.94-25.09-77.19-47.23-.83-1.61-1.63-3.2-2.44-4.74-4.28-8.2-13.59-16.49-23.44-25.26-12.21-10.87-26-23.19-26.32-32.91-.09-3,1.14-5.67,3.86-8.45,4.56-3.75,9.17-5.08,14.09-4.07,14.62,3,40.81,37.66,40.81,37.66S97.23,169.92,97.26,125c0-9.29,4.07-23.11,15.3-23.11,6.92,0,11.94,7.67,11.94,18.24,0,16.79,0,75.23.45,83.29.16,2.69.31,5.27.38,7.52l0,1.91c0,.13,0,.26,0,.38v.17h0c.4,5.47,4.28,5.54,4.49,5.54,8.91,0,6-10.71,6-41.57.7-6,2.19-11.26,5.11-14.35,2-2.12,4.6-3.11,8.16-3.11a8.27,8.27,0,0,1,6.46,3c3.87,4.26,6,12.05,7,20.41,0,14.93.49,31.14.49,31.14v.39a5.75,5.75,0,0,0,11.5,0v-34.1a19.67,19.67,0,0,1,3.34-6.39c2.4-2.9,5.52-4.25,9.83-4.25a7.3,7.3,0,0,1,5.64,2.57c3.47,3.76,5.41,10.63,6.44,17.91v23.26a6,6,0,0,0,11.63,2.05h.07a1.81,1.81,0,0,0,0-.25,6,6,0,0,0,.28-1.8V209.9c.06-2.09.07-4.61,0-7.37v-1.29c.72-6.86,2.42-14.23,6.07-18.18a8.27,8.27,0,0,1,6.45-2.81c12.19,0,12.81,17.45,12.81,20.95Z"/><path id="Shape_2_copy_7" data-name="Shape 2 copy 7" class="cls-2" d="M62,127.6,25.13,154.94"/><path class="cls-1" d="M25.14,159.28a4.34,4.34,0,0,1-2.59-7.83l36.83-27.34a4.35,4.35,0,1,1,5.18,7L27.72,158.43A4.33,4.33,0,0,1,25.14,159.28Z"/><path id="Shape_2_copy_8" data-name="Shape 2 copy 8" class="cls-2" d="M49.92,90.89,4.35,85.47"/><path class="cls-1" d="M49.93,95.23l-.52,0L3.83,89.79a4.35,4.35,0,1,1,1-8.63l45.58,5.41a4.35,4.35,0,0,1-.51,8.66Z"/><path id="Shape_2_copy_9" data-name="Shape 2 copy 9" class="cls-2" d="M65,61.24,36.82,25.09"/><path class="cls-1" d="M65,65.58a4.33,4.33,0,0,1-3.43-1.67L33.4,27.76a4.34,4.34,0,1,1,6.85-5.34l28.2,36.14a4.34,4.34,0,0,1-3.42,7Z"/><path id="Shape_2_copy_10" data-name="Shape 2 copy 10" class="cls-2" d="M97.25,49.84l5.45-45.5"/><path class="cls-1" d="M97.26,54.18a4.53,4.53,0,0,1-.52,0,4.36,4.36,0,0,1-3.8-4.83L98.38,3.83a4.35,4.35,0,0,1,8.63,1l-5.44,45.49A4.35,4.35,0,0,1,97.26,54.18Z"/><path id="Shape_2_copy_12" data-name="Shape 2 copy 12" class="cls-2" d="M173.7,43.16,136.87,70.51"/><path class="cls-1" d="M136.87,74.85A4.34,4.34,0,0,1,134.28,67l36.83-27.34a4.34,4.34,0,1,1,5.18,7L139.46,74A4.39,4.39,0,0,1,136.87,74.85Z"/></g></g></svg>