<?xml version="1.0" encoding="UTF-8" standalone="no"?>
<svg
   xmlns:dc="http://purl.org/dc/elements/1.1/"
   xmlns:cc="http://creativecommons.org/ns#"
   xmlns:rdf="http://www.w3.org/1999/02/22-rdf-syntax-ns#"
   xmlns:svg="http://www.w3.org/2000/svg"
   xmlns="http://www.w3.org/2000/svg"
   height="75.969002"
   width="87.5"
   id="svg20"
   version="1.1"
   viewBox="0 0 87.499998 75.969002">
  <metadata
     id="metadata24">
    <rdf:RDF>
      <cc:Work
         rdf:about="">
        <dc:format>image/svg+xml</dc:format>
        <dc:type
           rdf:resource="http://purl.org/dc/dcmitype/StillImage" />
        <dc:title>Asset 5</dc:title>
      </cc:Work>
    </rdf:RDF>
  </metadata>
  <defs
     id="defs4">
    <style
       id="style2">.cls-1{fill:#487b42;}</style>
  </defs>
  <title
     id="title6">Asset 5</title>
  <g
     transform="matrix(0.80371076,0,0,0.80371076,42.74002,-265.0135)"
     data-name="Layer 2"
     id="Layer_2">
    <g
       data-name="Layer 1"
       id="Layer_1-2">
      <g
         style="stroke-width:3.99998689"
         transform="matrix(0.25000082,0,0,0.25000082,-50.73867,328.54626)"
         id="g3772">
        <path
           class="cls-1"
           d="m 96.4,378.09 c -6.61,0 -15.74,-3.4 -21.74,-19.61 -3.57,-9.66 -5.54,-22.82 -5.54,-37.06 0,-30.68 8.43,-61.64 27.28,-61.64 12.27,0 95.35,9 176.76,21.22 45.71,6.88 82.42,13.5 109.12,19.67 44.3,10.24 53.2,17.29 53.2,25.34 0,8.39 -9.11,15.27 -54.47,23.61 -26.87,4.94 -64.15,9.9 -110.81,14.74 -82.62,8.56 -165.2,13.73 -173.8,13.73 z m 0,-106.31 c -7.21,0 -15.28,21.23 -15.28,49.64 0,12.85 1.7,24.53 4.8,32.9 2,5.37 5.41,11.77 10.48,11.77 7.81,0 85.6,-4.86 165.16,-12.91 C 387.54,340.42 415.85,330 422.2,326 418.51,323.56 407.05,318.31 371.63,310.58 344.46,304.64 308.34,298.33 264.27,291.8 186.15,280.24 107.58,271.78 96.4,271.78 Z m 327.41,55.59 z"
           id="path8"
           style="fill:#487b42;stroke-width:3.99998689" />
        <path
           class="cls-1"
           d="m 27.09,349.55 a 6,6 0 0 1 -5.62,-3.93 c -0.39,-1.07 -9.5,-26.46 0,-53.3 a 6.0029659,6.0029659 0 1 1 11.32,4 c -8,22.66 -0.1,44.95 0,45.18 a 6,6 0 0 1 -3.59,7.68 5.94,5.94 0 0 1 -2.11,0.37 z"
           id="path10"
           style="fill:#487b42;stroke-width:3.99998689" />
        <path
           class="cls-1"
           d="m 51.17,360.37 a 6,6 0 0 1 -5.8,-4.5 c -0.39,-1.48 -9.25,-36.62 0,-73.82 A 6,6 0 0 1 57,285 c -8.48,34.15 -0.1,67.59 0,67.93 a 6,6 0 0 1 -4.32,7.3 5.93,5.93 0 0 1 -1.51,0.14 z"
           id="path12"
           style="fill:#487b42;stroke-width:3.99998689" />
        <path
           class="cls-1"
           d="m 61.87,246.77 h -12 c 0,-3.42 0,-7.24 -0.1,-11.28 -0.4,-32 -1,-80.37 19.62,-101.25 a 34.5,34.5 0 0 1 25.45,-10.4 38.76,38.76 0 0 0 26.35,-10.47 C 135,100.59 142,77.53 142,44.8 h 12 c 0,84.48 -45.28,91 -59.16,91 a 22.62,22.62 0 0 0 -16.91,6.83 c -17.1,17.37 -16.54,62.7 -16.16,92.71 0.05,4.08 0.1,7.94 0.1,11.43 z"
           id="path14"
           style="fill:#487b42;stroke-width:3.99998689" />
        <path
           class="cls-1"
           d="M 12,205.56 H 0 C 0,172 0,69.73 52.88,69.73 c 0.72,0 1.56,0 2.5,0.07 5.9,0.21 14.82,0.53 22.53,-6.9 C 88.43,52.75 93.77,31.59 93.77,0 h 12 c 0,35.46 -6.39,58.86 -19.53,71.54 C 74.86,82.51 61.41,82 54.94,81.79 c -0.77,0 -1.46,-0.06 -2.06,-0.06 -16.27,0 -27.9,15.46 -34.57,46 C 12.72,153.28 12,182.75 12,205.56 Z"
           id="path16"
           style="fill:#487b42;stroke-width:3.99998689" />
      </g>
    </g>
  </g>
</svg>
