<?xml version="1.0" encoding="UTF-8" standalone="no"?>
<!-- Generator: Adobe Illustrator 15.1.0, SVG Export Plug-In . SVG Version: 6.00 Build 0)  -->

<svg
   xmlns:dc="http://purl.org/dc/elements/1.1/"
   xmlns:cc="http://creativecommons.org/ns#"
   xmlns:rdf="http://www.w3.org/1999/02/22-rdf-syntax-ns#"
   xmlns:svg="http://www.w3.org/2000/svg"
   xmlns="http://www.w3.org/2000/svg"
   xmlns:sodipodi="http://sodipodi.sourceforge.net/DTD/sodipodi-0.dtd"
   xmlns:inkscape="http://www.inkscape.org/namespaces/inkscape"
   version="1.1"
   id="Layer_1"
   x="0px"
   y="0px"
   width="300"
   height="100"
   viewBox="0 0 300 100"
   enable-background="new 0 0 612.195 150.407"
   xml:space="preserve"
   sodipodi:docname="spark-logo-hort-half.svg"
   inkscape:version="0.92.3 (2405546, 2018-03-11)"><metadata
   id="metadata4051"><rdf:RDF><cc:Work
       rdf:about=""><dc:format>image/svg+xml</dc:format><dc:type
         rdf:resource="http://purl.org/dc/dcmitype/StillImage" /><dc:title></dc:title></cc:Work></rdf:RDF></metadata><defs
   id="defs4049" /><sodipodi:namedview
   pagecolor="#ffffff"
   bordercolor="#666666"
   borderopacity="1"
   objecttolerance="10"
   gridtolerance="10"
   guidetolerance="10"
   inkscape:pageopacity="0"
   inkscape:pageshadow="2"
   inkscape:window-width="1383"
   inkscape:window-height="845"
   id="namedview4047"
   showgrid="false"
   inkscape:zoom="1.0074671"
   inkscape:cx="138.28521"
   inkscape:cy="75.203499"
   inkscape:window-x="57"
   inkscape:window-y="27"
   inkscape:window-maximized="1"
   inkscape:current-layer="g4044"
   showguides="false" />
<g
   id="g4044"
   transform="matrix(0.25,0,0,0.25,4.9616118,63.460202)">
	<g
   id="g3938"
   transform="matrix(1.8,0,0,1.8,22.898118,-197.86849)">
		<g
   id="g3922">
			<g
   id="g3914">
				<path
   d="m 73.732,132.512 c -0.476,0 -0.862,-0.385 -0.862,-0.86 V 5.112 c 0,-0.476 0.386,-0.862 0.862,-0.862 0.476,0 0.862,0.386 0.862,0.862 v 126.54 c 0,0.475 -0.386,0.86 -0.862,0.86 z"
   id="path3910"
   inkscape:connector-curvature="0" />
				<path
   d="m 78.892,145.855 c -0.476,0 -0.862,-0.386 -0.862,-0.862 V 18.454 c 0,-0.476 0.386,-0.862 0.862,-0.862 0.476,0 0.862,0.386 0.862,0.862 v 126.539 c 0,0.476 -0.386,0.862 -0.862,0.862 z"
   id="path3912"
   inkscape:connector-curvature="0" />
			</g>
			<g
   id="g3920">
				<path
   d="M 146.037,73.335 H 19.497 c -0.476,0 -0.861,-0.386 -0.861,-0.862 0,-0.477 0.386,-0.862 0.861,-0.862 h 126.54 c 0.476,0 0.862,0.386 0.862,0.862 0,0.476 -0.387,0.862 -0.862,0.862 z"
   id="path3916"
   inkscape:connector-curvature="0" />
				<path
   d="M 132.696,78.495 H 6.156 c -0.476,0 -0.861,-0.385 -0.861,-0.861 0,-0.476 0.386,-0.862 0.861,-0.862 h 126.54 c 0.476,0 0.862,0.386 0.862,0.862 0,0.476 -0.386,0.861 -0.862,0.861 z"
   id="path3918"
   inkscape:connector-curvature="0" />
			</g>
		</g>
		<g
   id="g3936">
			<g
   id="g3928">
				<path
   d="m 34.251,114.112 c -0.221,0 -0.441,-0.084 -0.609,-0.253 -0.337,-0.337 -0.337,-0.881 0,-1.218 l 89.477,-89.478 c 0.336,-0.336 0.882,-0.336 1.218,0 0.336,0.336 0.336,0.882 0,1.219 L 34.86,113.859 c -0.169,0.169 -0.389,0.253 -0.609,0.253 z"
   id="path3924"
   inkscape:connector-curvature="0" />
				<path
   d="m 28.465,127.193 c -0.22,0 -0.44,-0.083 -0.609,-0.252 -0.336,-0.337 -0.336,-0.882 0,-1.218 l 89.477,-89.478 c 0.337,-0.337 0.882,-0.337 1.219,0 0.336,0.336 0.336,0.882 0,1.219 l -89.478,89.477 c -0.168,0.169 -0.388,0.252 -0.609,0.252 z"
   id="path3926"
   inkscape:connector-curvature="0" />
			</g>
			<g
   id="g3934">
				<path
   d="m 117.942,114.112 c -0.22,0 -0.44,-0.084 -0.609,-0.253 L 27.856,24.382 c -0.336,-0.336 -0.336,-0.882 0,-1.219 0.336,-0.337 0.882,-0.336 1.219,0 l 89.477,89.478 c 0.336,0.337 0.336,0.881 0,1.218 -0.168,0.169 -0.388,0.253 -0.61,0.253 z"
   id="path3930"
   inkscape:connector-curvature="0" />
				<path
   d="m 123.727,127.193 c -0.22,0 -0.44,-0.083 -0.609,-0.252 L 33.641,37.464 c -0.336,-0.336 -0.336,-0.882 0,-1.219 0.337,-0.337 0.882,-0.337 1.219,0 l 89.477,89.478 c 0.336,0.336 0.336,0.881 0,1.218 -0.169,0.169 -0.389,0.252 -0.61,0.252 z"
   id="path3932"
   inkscape:connector-curvature="0" />
			</g>
		</g>
	</g>
	<g
   id="g4042"
   transform="matrix(1.8,0,0,1.8,40.15224,-194.12472)">
		<g
   id="g4000">
			<path
   d="m 152.835,118.018 h 3.486 c 1.944,0 3.26,0.085 3.95,0.258 1.039,0.257 1.884,0.81 2.535,1.654 0.65,0.846 0.976,1.886 0.976,3.122 0,1.031 -0.224,1.938 -0.672,2.718 -0.448,0.78 -1.088,1.371 -1.921,1.769 -0.833,0.4 -1.983,0.604 -3.451,0.613 l 6.294,8.782 h -2.165 l -6.294,-8.782 h -0.989 v 8.782 h -1.749 z m 1.749,1.853 v 6.43 l 3.015,0.024 c 1.168,0 2.032,-0.119 2.592,-0.36 0.561,-0.239 0.998,-0.622 1.311,-1.149 0.314,-0.528 0.472,-1.116 0.472,-1.77 0,-0.635 -0.16,-1.209 -0.477,-1.729 -0.318,-0.519 -0.735,-0.89 -1.251,-1.113 -0.517,-0.222 -1.375,-0.333 -2.575,-0.333 z"
   id="path3940"
   inkscape:connector-curvature="0" />
			<path
   d="m 178.682,132.292 1.403,0.798 c -0.46,0.978 -0.992,1.767 -1.596,2.366 -0.603,0.6 -1.282,1.056 -2.036,1.369 -0.755,0.313 -1.608,0.47 -2.561,0.47 -2.112,0 -3.764,-0.747 -4.954,-2.243 -1.192,-1.496 -1.787,-3.188 -1.787,-5.075 0,-1.773 0.504,-3.354 1.512,-4.743 1.278,-1.767 2.99,-2.65 5.133,-2.65 2.207,0 3.97,0.906 5.288,2.713 0.937,1.279 1.413,2.874 1.429,4.784 h -11.648 c 0.031,1.626 0.512,2.959 1.441,3.996 0.929,1.04 2.077,1.559 3.443,1.559 0.659,0 1.3,-0.123 1.924,-0.371 0.623,-0.246 1.153,-0.577 1.59,-0.986 0.437,-0.409 0.91,-1.073 1.419,-1.987 z m 0,-3.767 c -0.223,-0.962 -0.547,-1.729 -0.972,-2.304 -0.425,-0.572 -0.986,-1.035 -1.686,-1.389 -0.698,-0.351 -1.433,-0.525 -2.204,-0.525 -1.271,0 -2.363,0.44 -3.276,1.324 -0.667,0.642 -1.172,1.607 -1.513,2.894 z"
   id="path3942"
   inkscape:connector-curvature="0" />
			<path
   d="m 197.301,125.85 -1.321,0.886 c -1.14,-1.637 -2.697,-2.455 -4.67,-2.455 -1.577,0 -2.886,0.548 -3.928,1.644 -1.042,1.096 -1.563,2.429 -1.563,3.996 0,1.018 0.24,1.978 0.719,2.876 0.479,0.899 1.137,1.597 1.973,2.094 0.836,0.496 1.773,0.744 2.811,0.744 1.901,0 3.455,-0.818 4.658,-2.455 l 1.321,0.939 c -0.619,1.006 -1.45,1.786 -2.493,2.344 -1.042,0.555 -2.23,0.832 -3.563,0.832 -2.046,0 -3.744,-0.703 -5.093,-2.109 -1.349,-1.406 -2.023,-3.115 -2.023,-5.13 0,-1.355 0.316,-2.612 0.947,-3.775 0.63,-1.161 1.497,-2.068 2.599,-2.72 1.103,-0.65 2.336,-0.978 3.701,-0.978 0.856,0 1.684,0.142 2.481,0.426 0.796,0.281 1.473,0.65 2.028,1.104 0.555,0.456 1.027,1.033 1.416,1.737 z"
   id="path3944"
   inkscape:connector-curvature="0" />
			<path
   d="m 201.124,122.943 h 1.702 v 2.044 c 0.508,-0.805 1.043,-1.406 1.606,-1.805 0.563,-0.4 1.15,-0.6 1.762,-0.6 0.459,0 0.952,0.159 1.475,0.477 l -0.868,1.517 c -0.35,-0.161 -0.643,-0.244 -0.88,-0.244 -0.556,0 -1.091,0.246 -1.607,0.74 -0.516,0.492 -0.908,1.257 -1.178,2.295 -0.206,0.798 -0.309,2.408 -0.309,4.835 v 4.732 h -1.702 v -13.991 z"
   id="path3946"
   inkscape:connector-curvature="0" />
			<path
   d="m 220.719,132.292 1.404,0.798 c -0.46,0.978 -0.992,1.767 -1.596,2.366 -0.603,0.6 -1.282,1.056 -2.037,1.369 -0.755,0.313 -1.608,0.47 -2.561,0.47 -2.112,0 -3.764,-0.747 -4.955,-2.243 -1.191,-1.496 -1.787,-3.188 -1.787,-5.075 0,-1.773 0.505,-3.354 1.512,-4.743 1.278,-1.767 2.99,-2.65 5.134,-2.65 2.207,0 3.969,0.906 5.287,2.713 0.937,1.279 1.414,2.874 1.429,4.784 H 210.9 c 0.031,1.626 0.512,2.959 1.441,3.996 0.929,1.04 2.077,1.559 3.443,1.559 0.659,0 1.301,-0.123 1.925,-0.371 0.623,-0.246 1.153,-0.577 1.59,-0.986 0.438,-0.411 0.911,-1.073 1.42,-1.987 z m 0,-3.767 c -0.223,-0.962 -0.547,-1.729 -0.972,-2.304 -0.425,-0.572 -0.986,-1.035 -1.685,-1.389 -0.699,-0.351 -1.434,-0.525 -2.204,-0.525 -1.271,0 -2.363,0.44 -3.276,1.324 -0.667,0.642 -1.172,1.607 -1.513,2.894 z"
   id="path3948"
   inkscape:connector-curvature="0" />
			<path
   d="m 239.659,122.943 v 13.991 h -1.641 v -2.404 c -0.698,0.917 -1.482,1.608 -2.351,2.071 -0.868,0.463 -1.818,0.693 -2.85,0.693 -1.833,0 -3.397,-0.719 -4.694,-2.154 -1.297,-1.435 -1.946,-3.183 -1.946,-5.239 0,-2.016 0.655,-3.737 1.963,-5.171 1.31,-1.432 2.883,-2.147 4.724,-2.147 1.063,0 2.025,0.244 2.886,0.734 0.861,0.487 1.616,1.221 2.267,2.198 v -2.572 z m -6.657,1.375 c -0.927,0 -1.783,0.249 -2.567,0.741 -0.784,0.491 -1.408,1.183 -1.872,2.072 -0.463,0.891 -0.695,1.834 -0.695,2.827 0,0.984 0.233,1.926 0.7,2.824 0.468,0.899 1.096,1.6 1.884,2.101 0.789,0.501 1.634,0.751 2.537,0.751 0.912,0 1.776,-0.248 2.592,-0.744 0.816,-0.497 1.444,-1.168 1.883,-2.016 0.44,-0.848 0.661,-1.802 0.661,-2.864 0,-1.619 -0.493,-2.973 -1.479,-4.06 -0.987,-1.086 -2.201,-1.632 -3.644,-1.632 z"
   id="path3950"
   inkscape:connector-curvature="0" />
			<path
   d="m 245.764,117.748 h 1.666 v 5.195 h 2.641 v 1.557 h -2.641 v 12.435 h -1.666 V 124.5 h -2.272 v -1.557 h 2.272 z"
   id="path3952"
   inkscape:connector-curvature="0" />
			<path
   d="m 254.399,117.182 c 0.379,0 0.704,0.146 0.971,0.438 0.27,0.29 0.404,0.642 0.404,1.053 0,0.403 -0.134,0.752 -0.404,1.043 -0.267,0.29 -0.591,0.436 -0.971,0.436 -0.371,0 -0.692,-0.146 -0.959,-0.436 -0.27,-0.291 -0.403,-0.64 -0.403,-1.043 0,-0.411 0.134,-0.763 0.403,-1.053 0.268,-0.292 0.588,-0.438 0.959,-0.438 z m -0.826,5.761 h 1.665 v 13.991 h -1.665 z"
   id="path3954"
   inkscape:connector-curvature="0" />
			<path
   d="m 266.115,122.583 c 1.995,0 3.648,0.781 4.959,2.342 1.191,1.423 1.788,3.106 1.788,5.052 0,1.955 -0.631,3.664 -1.89,5.126 -1.259,1.461 -2.879,2.192 -4.857,2.192 -1.986,0 -3.609,-0.731 -4.87,-2.192 -1.258,-1.462 -1.889,-3.171 -1.889,-5.126 0,-1.937 0.596,-3.616 1.788,-5.04 1.312,-1.569 2.968,-2.354 4.971,-2.354 z m -0.006,1.762 c -1.385,0 -2.575,0.553 -3.57,1.659 -0.996,1.105 -1.493,2.442 -1.493,4.013 0,1.011 0.227,1.954 0.681,2.829 0.453,0.874 1.067,1.55 1.839,2.023 0.771,0.477 1.619,0.714 2.543,0.714 0.923,0 1.771,-0.237 2.544,-0.714 0.772,-0.474 1.383,-1.149 1.838,-2.023 0.454,-0.875 0.68,-1.818 0.68,-2.829 0,-1.57 -0.499,-2.907 -1.497,-4.013 -1,-1.106 -2.188,-1.659 -3.565,-1.659 z"
   id="path3956"
   inkscape:connector-curvature="0" />
			<path
   d="m 277.182,122.943 h 1.665 v 2.507 c 0.667,-0.959 1.405,-1.677 2.213,-2.153 0.81,-0.475 1.691,-0.714 2.643,-0.714 0.968,0 1.827,0.267 2.575,0.799 0.75,0.53 1.304,1.246 1.66,2.146 0.357,0.899 0.535,2.302 0.535,4.205 v 7.201 h -1.664 v -6.674 c 0,-1.612 -0.063,-2.688 -0.187,-3.227 -0.192,-0.926 -0.563,-1.624 -1.11,-2.092 -0.547,-0.467 -1.261,-0.699 -2.143,-0.699 -1.006,0 -1.909,0.359 -2.706,1.08 -0.797,0.72 -1.323,1.612 -1.577,2.675 -0.16,0.693 -0.239,1.963 -0.239,3.806 v 5.131 h -1.665 z"
   id="path3958"
   inkscape:connector-curvature="0" />
			<path
   d="m 306.138,122.943 v 13.991 h -1.643 v -2.404 c -0.698,0.917 -1.482,1.608 -2.35,2.071 -0.869,0.463 -1.819,0.693 -2.849,0.693 -1.833,0 -3.397,-0.719 -4.695,-2.154 -1.297,-1.436 -1.946,-3.183 -1.946,-5.239 0,-2.016 0.655,-3.737 1.965,-5.171 1.31,-1.432 2.883,-2.147 4.722,-2.147 1.063,0 2.025,0.244 2.886,0.734 0.861,0.487 1.617,1.221 2.267,2.198 v -2.572 z m -6.658,1.375 c -0.927,0 -1.783,0.249 -2.567,0.741 -0.783,0.491 -1.409,1.183 -1.872,2.072 -0.462,0.891 -0.694,1.834 -0.694,2.827 0,0.984 0.233,1.926 0.701,2.824 0.467,0.899 1.096,1.6 1.884,2.101 0.788,0.501 1.633,0.751 2.536,0.751 0.913,0 1.776,-0.248 2.592,-0.744 0.816,-0.497 1.443,-1.168 1.883,-2.016 0.441,-0.848 0.66,-1.802 0.66,-2.864 0,-1.619 -0.493,-2.973 -1.479,-4.06 -0.988,-1.086 -2.202,-1.632 -3.644,-1.632 z"
   id="path3960"
   inkscape:connector-curvature="0" />
			<path
   d="m 311.02,117.542 h 1.666 v 19.392 h -1.666 z"
   id="path3962"
   inkscape:connector-curvature="0" />
			<path
   d="m 338.848,129.938 1.186,1.358 c -0.762,0.729 -1.482,1.357 -2.168,1.887 0.478,0.475 1.099,1.123 1.863,1.95 0.605,0.651 1.123,1.25 1.56,1.801 h -2.44 l -2.321,-2.585 c -1.459,1.27 -2.644,2.098 -3.557,2.481 -0.911,0.388 -1.876,0.58 -2.89,0.58 -1.349,0 -2.433,-0.419 -3.248,-1.255 -0.819,-0.837 -1.227,-1.881 -1.227,-3.134 0,-0.941 0.275,-1.887 0.826,-2.835 0.551,-0.948 1.674,-2.146 3.371,-3.594 -0.958,-1.253 -1.574,-2.177 -1.849,-2.771 -0.272,-0.595 -0.409,-1.163 -0.409,-1.704 0,-0.941 0.338,-1.722 1.012,-2.339 0.776,-0.718 1.744,-1.078 2.902,-1.078 0.729,0 1.397,0.158 1.999,0.474 0.603,0.318 1.063,0.745 1.381,1.282 0.316,0.534 0.476,1.103 0.476,1.701 0,0.636 -0.207,1.311 -0.619,2.026 -0.414,0.716 -1.229,1.631 -2.442,2.746 l 2.653,3.008 1.737,1.906 c 0.936,-0.739 1.67,-1.375 2.204,-1.905 z m -7.89,-1.918 c -1.487,1.21 -2.462,2.171 -2.924,2.887 -0.46,0.716 -0.69,1.38 -0.69,1.988 0,0.72 0.281,1.357 0.847,1.91 0.564,0.555 1.256,0.829 2.074,0.829 0.619,0 1.228,-0.136 1.822,-0.411 0.939,-0.437 2.014,-1.179 3.225,-2.228 l -2.76,-3.073 c -0.476,-0.541 -1.008,-1.173 -1.594,-1.902 z m 0.212,-2.505 c 0.851,-0.712 1.49,-1.409 1.918,-2.096 0.303,-0.49 0.454,-0.922 0.454,-1.3 0,-0.436 -0.198,-0.813 -0.591,-1.131 -0.395,-0.318 -0.918,-0.477 -1.569,-0.477 -0.621,0 -1.125,0.163 -1.516,0.489 -0.389,0.327 -0.583,0.712 -0.583,1.156 0,0.345 0.078,0.664 0.237,0.967 0.392,0.728 0.941,1.526 1.65,2.392 z"
   id="path3964"
   inkscape:connector-curvature="0" />
			<path
   d="m 352.433,136.934 2.507,-18.916 h 0.284 l 7.116,15.521 7.048,-15.521 h 0.279 l 2.518,18.916 h -1.713 l -1.729,-13.528 -6.189,13.528 h -0.447 l -6.261,-13.631 -1.721,13.631 z"
   id="path3966"
   inkscape:connector-curvature="0" />
			<path
   d="m 387.427,132.292 1.404,0.798 c -0.46,0.978 -0.992,1.767 -1.596,2.366 -0.604,0.599 -1.282,1.056 -2.037,1.369 -0.755,0.313 -1.607,0.47 -2.561,0.47 -2.111,0 -3.764,-0.747 -4.954,-2.243 -1.191,-1.496 -1.786,-3.188 -1.786,-5.075 0,-1.773 0.504,-3.354 1.512,-4.743 1.279,-1.767 2.989,-2.65 5.134,-2.65 2.207,0 3.97,0.906 5.288,2.713 0.937,1.279 1.412,2.874 1.429,4.784 h -11.649 c 0.031,1.626 0.513,2.959 1.442,3.996 0.928,1.04 2.075,1.559 3.443,1.559 0.657,0 1.299,-0.123 1.923,-0.371 0.624,-0.246 1.154,-0.577 1.59,-0.986 0.438,-0.411 0.91,-1.073 1.418,-1.987 z m 0,-3.767 c -0.222,-0.962 -0.546,-1.729 -0.971,-2.304 -0.425,-0.572 -0.987,-1.035 -1.685,-1.389 -0.7,-0.351 -1.435,-0.525 -2.205,-0.525 -1.271,0 -2.363,0.44 -3.275,1.324 -0.668,0.642 -1.172,1.607 -1.514,2.894 z"
   id="path3968"
   inkscape:connector-curvature="0" />
			<path
   d="m 406.379,117.542 v 19.392 h -1.644 v -2.404 c -0.697,0.917 -1.481,1.608 -2.348,2.071 -0.869,0.463 -1.818,0.693 -2.851,0.693 -1.832,0 -3.397,-0.719 -4.694,-2.154 -1.297,-1.435 -1.944,-3.183 -1.944,-5.239 0,-2.016 0.654,-3.737 1.962,-5.171 1.309,-1.432 2.884,-2.147 4.725,-2.147 1.063,0 2.024,0.244 2.885,0.734 0.861,0.487 1.617,1.221 2.266,2.198 v -7.973 z m -6.657,6.776 c -0.927,0 -1.782,0.249 -2.567,0.741 -0.785,0.491 -1.408,1.183 -1.872,2.072 -0.464,0.891 -0.694,1.834 -0.694,2.827 0,0.984 0.232,1.926 0.7,2.824 0.467,0.899 1.096,1.6 1.884,2.101 0.788,0.501 1.634,0.751 2.537,0.751 0.912,0 1.776,-0.248 2.593,-0.744 0.815,-0.497 1.443,-1.168 1.883,-2.016 0.44,-0.848 0.659,-1.802 0.659,-2.864 0,-1.619 -0.494,-2.973 -1.48,-4.06 -0.986,-1.087 -2.2,-1.632 -3.643,-1.632 z"
   id="path3970"
   inkscape:connector-curvature="0" />
			<path
   d="m 412.141,117.182 c 0.379,0 0.704,0.146 0.972,0.438 0.271,0.29 0.402,0.642 0.402,1.053 0,0.403 -0.132,0.752 -0.402,1.043 -0.268,0.29 -0.593,0.436 -0.972,0.436 -0.369,0 -0.69,-0.146 -0.957,-0.436 -0.271,-0.291 -0.405,-0.64 -0.405,-1.043 0,-0.411 0.134,-0.763 0.405,-1.053 0.267,-0.292 0.588,-0.438 0.957,-0.438 z m -0.825,5.761 h 1.665 v 13.991 h -1.665 z"
   id="path3972"
   inkscape:connector-curvature="0" />
			<path
   d="m 430.282,125.85 -1.321,0.886 c -1.142,-1.637 -2.696,-2.455 -4.67,-2.455 -1.577,0 -2.887,0.548 -3.928,1.644 -1.042,1.096 -1.562,2.429 -1.562,3.996 0,1.018 0.239,1.978 0.718,2.876 0.479,0.899 1.137,1.597 1.974,2.094 0.835,0.496 1.772,0.744 2.809,0.744 1.902,0 3.455,-0.818 4.659,-2.455 l 1.321,0.939 c -0.619,1.006 -1.448,1.786 -2.493,2.344 -1.043,0.555 -2.229,0.832 -3.563,0.832 -2.046,0 -3.743,-0.703 -5.092,-2.109 -1.349,-1.406 -2.023,-3.115 -2.023,-5.13 0,-1.355 0.316,-2.612 0.946,-3.775 0.631,-1.161 1.497,-2.068 2.6,-2.72 1.102,-0.65 2.337,-0.978 3.701,-0.978 0.855,0 1.685,0.142 2.481,0.426 0.797,0.281 1.472,0.65 2.027,1.104 0.555,0.456 1.027,1.033 1.416,1.737 z"
   id="path3974"
   inkscape:connector-curvature="0" />
			<path
   d="m 447.017,122.943 v 13.991 h -1.641 v -2.404 c -0.698,0.917 -1.481,1.608 -2.349,2.071 -0.87,0.463 -1.82,0.693 -2.851,0.693 -1.832,0 -3.396,-0.719 -4.694,-2.154 -1.298,-1.435 -1.946,-3.183 -1.946,-5.239 0,-2.016 0.656,-3.737 1.965,-5.171 1.31,-1.432 2.884,-2.147 4.722,-2.147 1.063,0 2.025,0.244 2.887,0.734 0.859,0.487 1.615,1.221 2.267,2.198 v -2.572 z m -6.656,1.375 c -0.925,0 -1.783,0.249 -2.566,0.741 -0.784,0.491 -1.41,1.183 -1.872,2.072 -0.463,0.891 -0.695,1.834 -0.695,2.827 0,0.984 0.235,1.926 0.702,2.824 0.468,0.899 1.095,1.6 1.884,2.101 0.788,0.501 1.635,0.751 2.537,0.751 0.911,0 1.773,-0.248 2.59,-0.744 0.815,-0.497 1.443,-1.168 1.885,-2.016 0.439,-0.848 0.658,-1.802 0.658,-2.864 0,-1.619 -0.492,-2.973 -1.479,-4.06 -0.986,-1.086 -2.203,-1.632 -3.644,-1.632 z"
   id="path3976"
   inkscape:connector-curvature="0" />
			<path
   d="m 451.903,117.542 h 1.665 v 19.392 h -1.665 z"
   id="path3978"
   inkscape:connector-curvature="0" />
			<path
   d="m 466.486,136.934 v -18.916 h 3.629 c 2.618,0 4.518,0.227 5.7,0.683 1.697,0.642 3.024,1.756 3.979,3.344 0.956,1.585 1.435,3.475 1.435,5.669 0,1.896 -0.379,3.563 -1.136,5.003 -0.759,1.44 -1.742,2.502 -2.951,3.188 -1.209,0.686 -2.906,1.029 -5.088,1.029 z m 1.679,-1.787 h 2.023 c 2.417,0 4.096,-0.163 5.033,-0.487 1.315,-0.463 2.352,-1.297 3.104,-2.5 0.754,-1.204 1.131,-2.675 1.131,-4.413 0,-1.825 -0.407,-3.384 -1.226,-4.679 -0.816,-1.292 -1.956,-2.178 -3.413,-2.659 -1.096,-0.359 -2.899,-0.538 -5.415,-0.538 h -1.237 z"
   id="path3980"
   inkscape:connector-curvature="0" />
			<path
   d="m 486.457,117.182 c 0.379,0 0.702,0.146 0.972,0.438 0.268,0.29 0.402,0.642 0.402,1.053 0,0.403 -0.135,0.752 -0.402,1.043 -0.27,0.29 -0.593,0.436 -0.972,0.436 -0.372,0 -0.693,-0.146 -0.961,-0.436 -0.267,-0.291 -0.402,-0.64 -0.402,-1.043 0,-0.411 0.136,-0.763 0.402,-1.053 0.267,-0.292 0.588,-0.438 0.961,-0.438 z m -0.83,5.761 h 1.668 v 13.991 h -1.668 z"
   id="path3982"
   inkscape:connector-curvature="0" />
			<path
   d="m 498.671,124.473 -1.071,1.196 c -0.891,-0.936 -1.76,-1.402 -2.61,-1.402 -0.543,0 -1.005,0.194 -1.392,0.579 -0.386,0.387 -0.579,0.836 -0.579,1.351 0,0.454 0.159,0.888 0.478,1.3 0.318,0.418 0.985,0.912 2.004,1.478 1.24,0.693 2.081,1.362 2.527,2.007 0.438,0.65 0.656,1.384 0.656,2.198 0,1.149 -0.375,2.122 -1.12,2.918 -0.747,0.799 -1.683,1.197 -2.801,1.197 -0.749,0 -1.46,-0.175 -2.139,-0.528 -0.679,-0.351 -1.241,-0.834 -1.688,-1.451 l 1.048,-1.286 c 0.851,1.035 1.753,1.555 2.707,1.555 0.667,0 1.237,-0.23 1.707,-0.693 0.467,-0.463 0.702,-1.009 0.702,-1.633 0,-0.515 -0.155,-0.973 -0.466,-1.378 -0.31,-0.394 -1.009,-0.89 -2.098,-1.491 -1.17,-0.651 -1.965,-1.293 -2.385,-1.928 -0.421,-0.636 -0.633,-1.36 -0.633,-2.174 0,-1.063 0.337,-1.946 1.007,-2.648 0.673,-0.704 1.521,-1.056 2.547,-1.056 1.191,-0.001 2.391,0.629 3.599,1.889 z"
   id="path3984"
   inkscape:connector-curvature="0" />
			<path
   d="m 502.9,122.943 h 1.663 v 2.572 c 0.659,-0.978 1.417,-1.711 2.272,-2.198 0.855,-0.49 1.81,-0.734 2.865,-0.734 1.836,0 3.41,0.716 4.717,2.147 1.31,1.434 1.963,3.155 1.963,5.171 0,2.057 -0.649,3.804 -1.944,5.239 -1.295,1.435 -2.857,2.154 -4.689,2.154 -1.03,0 -1.977,-0.23 -2.842,-0.693 -0.861,-0.463 -1.644,-1.154 -2.342,-2.071 v 7.523 H 502.9 Z m 6.663,1.375 c -1.441,0 -2.656,0.546 -3.639,1.633 -0.986,1.087 -1.479,2.44 -1.479,4.06 0,1.063 0.222,2.017 0.659,2.864 0.439,0.848 1.068,1.519 1.887,2.016 0.821,0.496 1.685,0.744 2.596,0.744 0.893,0 1.734,-0.25 2.522,-0.751 0.786,-0.501 1.414,-1.201 1.881,-2.101 0.468,-0.898 0.7,-1.84 0.7,-2.824 0,-0.993 -0.23,-1.937 -0.693,-2.827 -0.465,-0.89 -1.088,-1.581 -1.872,-2.072 -0.783,-0.493 -1.637,-0.742 -2.562,-0.742 z"
   id="path3986"
   inkscape:connector-curvature="0" />
			<path
   d="m 531.523,132.292 1.405,0.798 c -0.461,0.978 -0.993,1.767 -1.598,2.366 -0.603,0.6 -1.281,1.056 -2.037,1.369 -0.754,0.313 -1.606,0.47 -2.56,0.47 -2.111,0 -3.765,-0.747 -4.954,-2.243 -1.191,-1.496 -1.786,-3.188 -1.786,-5.075 0,-1.773 0.504,-3.354 1.511,-4.743 1.279,-1.767 2.99,-2.65 5.135,-2.65 2.206,0 3.969,0.906 5.287,2.713 0.937,1.279 1.413,2.874 1.43,4.784 h -11.649 c 0.03,1.626 0.513,2.959 1.441,3.996 0.929,1.04 2.076,1.559 3.444,1.559 0.657,0 1.299,-0.123 1.923,-0.371 0.623,-0.246 1.153,-0.577 1.591,-0.986 0.436,-0.411 0.908,-1.073 1.417,-1.987 z m 0,-3.767 c -0.224,-0.962 -0.545,-1.729 -0.972,-2.304 -0.426,-0.572 -0.986,-1.035 -1.685,-1.389 -0.7,-0.351 -1.436,-0.525 -2.205,-0.525 -1.27,0 -2.362,0.44 -3.276,1.324 -0.667,0.642 -1.172,1.607 -1.513,2.894 z"
   id="path3988"
   inkscape:connector-curvature="0" />
			<path
   d="m 537.596,122.943 h 1.665 v 2.507 c 0.668,-0.959 1.404,-1.677 2.214,-2.153 0.809,-0.475 1.689,-0.714 2.642,-0.714 0.967,0 1.827,0.267 2.576,0.799 0.748,0.53 1.302,1.246 1.659,2.146 0.355,0.899 0.535,2.302 0.535,4.205 v 7.201 h -1.664 v -6.674 c 0,-1.612 -0.063,-2.688 -0.188,-3.227 -0.191,-0.926 -0.562,-1.624 -1.109,-2.092 -0.547,-0.467 -1.262,-0.699 -2.143,-0.699 -1.007,0 -1.911,0.359 -2.706,1.08 -0.798,0.72 -1.323,1.612 -1.579,2.675 -0.158,0.693 -0.237,1.963 -0.237,3.806 v 5.131 h -1.665 z"
   id="path3990"
   inkscape:connector-curvature="0" />
			<path
   d="m 560.232,124.473 -1.072,1.196 c -0.89,-0.936 -1.76,-1.402 -2.611,-1.402 -0.542,0 -1.004,0.194 -1.391,0.579 -0.386,0.387 -0.578,0.836 -0.578,1.351 0,0.454 0.157,0.888 0.477,1.3 0.318,0.418 0.986,0.912 2.004,1.478 1.239,0.693 2.081,1.362 2.528,2.007 0.436,0.65 0.655,1.384 0.655,2.198 0,1.149 -0.375,2.122 -1.121,2.918 -0.747,0.799 -1.682,1.197 -2.8,1.197 -0.748,0 -1.46,-0.175 -2.139,-0.528 -0.679,-0.351 -1.241,-0.834 -1.688,-1.451 l 1.048,-1.286 c 0.851,1.035 1.753,1.555 2.707,1.555 0.666,0 1.236,-0.23 1.706,-0.693 0.468,-0.463 0.702,-1.009 0.702,-1.633 0,-0.515 -0.153,-0.973 -0.465,-1.378 -0.309,-0.394 -1.009,-0.89 -2.098,-1.491 -1.169,-0.651 -1.964,-1.293 -2.386,-1.928 -0.42,-0.636 -0.631,-1.36 -0.631,-2.174 0,-1.063 0.336,-1.946 1.006,-2.648 0.672,-0.704 1.521,-1.056 2.546,-1.056 1.192,-0.001 2.391,0.629 3.601,1.889 z"
   id="path3992"
   inkscape:connector-curvature="0" />
			<path
   d="m 577.132,122.943 v 13.991 h -1.642 v -2.404 c -0.697,0.917 -1.48,1.608 -2.348,2.071 -0.87,0.463 -1.82,0.693 -2.851,0.693 -1.833,0 -3.397,-0.719 -4.694,-2.154 -1.298,-1.436 -1.946,-3.183 -1.946,-5.239 0,-2.016 0.656,-3.737 1.964,-5.171 1.31,-1.432 2.885,-2.147 4.723,-2.147 1.063,0 2.025,0.244 2.886,0.734 0.86,0.487 1.616,1.221 2.267,2.198 v -2.572 z m -6.656,1.375 c -0.926,0 -1.784,0.249 -2.567,0.741 -0.783,0.491 -1.409,1.183 -1.871,2.072 -0.463,0.891 -0.695,1.834 -0.695,2.827 0,0.984 0.234,1.926 0.702,2.824 0.468,0.899 1.095,1.6 1.883,2.101 0.788,0.501 1.635,0.751 2.537,0.751 0.912,0 1.773,-0.248 2.59,-0.744 0.816,-0.497 1.444,-1.168 1.886,-2.016 0.439,-0.848 0.658,-1.802 0.658,-2.864 0,-1.619 -0.493,-2.973 -1.479,-4.06 -0.986,-1.086 -2.203,-1.632 -3.644,-1.632 z"
   id="path3994"
   inkscape:connector-curvature="0" />
			<path
   d="m 581.829,122.943 h 1.702 v 2.044 c 0.508,-0.805 1.045,-1.406 1.607,-1.805 0.562,-0.4 1.15,-0.6 1.76,-0.6 0.461,0 0.954,0.159 1.478,0.477 l -0.87,1.517 c -0.35,-0.161 -0.643,-0.244 -0.879,-0.244 -0.556,0 -1.091,0.246 -1.607,0.74 -0.516,0.492 -0.909,1.257 -1.179,2.295 -0.207,0.798 -0.31,2.408 -0.31,4.835 v 4.732 h -1.702 z"
   id="path3996"
   inkscape:connector-curvature="0" />
			<path
   d="m 590.767,122.943 h 1.762 l 4.448,10.775 4.32,-10.775 h 1.774 l -7.722,19.11 h -1.76 l 2.492,-6.18 z"
   id="path3998"
   inkscape:connector-curvature="0" />
		</g>
		<g
   id="g4040">
			<g
   id="g4004">
				<path
   d="M 606.922,111.072 H 148.983 c -0.949,0 -1.718,-0.769 -1.718,-1.717 0,-0.948 0.769,-1.718 1.718,-1.718 h 457.939 c 0.948,0 1.718,0.77 1.718,1.718 0,0.948 -0.769,1.717 -1.718,1.717 z"
   id="path4002"
   inkscape:connector-curvature="0" />
			</g>
			<g
   id="g4038">
				<g
   id="g4016">
					<path
   d="m 210.009,95.016 c 5.86,-0.723 9.125,-2.125 12.05,-4.649 3.61,-3.196 4.933,-7.774 4.933,-17.147 0,-11.5 -3.489,-16.292 -13.597,-18.316 -3.128,-0.64 -6.377,-0.957 -14.92,-1.384 l -2.889,-0.107 -3.008,-0.105 -2.888,-0.212 c -2.768,-0.107 -4.934,-0.32 -6.137,-0.64 -4.211,-1.065 -5.655,-3.301 -5.655,-9.053 0,-7.667 3.128,-9.263 17.568,-9.263 12.153,0 14.801,1.704 14.801,9.158 v 1.489 h 14.8 v -2.769 c 0,-7.347 -2.286,-12.352 -6.858,-15.12 -4.573,-2.664 -10.108,-3.516 -23.826,-3.516 -14.319,0 -20.696,1.066 -25.509,4.26 -4.332,2.769 -6.378,7.986 -6.378,16.399 0,12.459 4.212,17.679 15.884,19.488 2.768,0.427 4.933,0.64 13.717,1.064 l 2.768,0.107 2.768,0.212 2.888,0.107 c 3.009,0.212 5.415,0.425 6.618,0.852 3.37,0.957 4.693,3.193 4.693,8.093 0,9.158 -2.286,10.755 -15.763,10.755 -13.116,0 -14.8,-0.32 -16.846,-2.664 -1.685,-1.81 -2.046,-3.621 -2.166,-9.476 h -14.8 v 1.702 c 0.12,2.876 0.12,4.58 0.481,6.496 0.962,7.029 4.211,11.075 10.829,13.099 3.971,1.277 9.626,1.81 19.975,1.81 3.556,0 6.628,-0.044 9.318,-0.147 2.383,-0.18 4.765,-0.37 7.149,-0.523 z"
   id="path4006"
   inkscape:connector-curvature="0" />
					<path
   d="m 256.097,93.375 c 2.204,0.001 4.407,0.021 6.61,0.024 V 72.155 h 17.93 c 14.319,-0.212 13.957,-0.212 16.846,-0.959 10.107,-2.341 13.958,-8.731 13.958,-23.001 0,-6.494 -0.722,-11.074 -2.286,-14.163 -3.008,-5.962 -8.784,-9.265 -16.967,-9.797 -2.887,-0.212 -4.453,-0.212 -11.07,-0.212 H 247.306 V 93.61 c 2.511,-0.043 5.023,-0.06 7.535,-0.09 0.388,-0.092 0.805,-0.145 1.256,-0.145 z m 6.611,-58.064 h 18.891 c 5.656,0 7.101,0.105 8.905,0.638 4.211,1.279 5.293,3.94 5.293,12.566 0,10.33 -2.045,11.927 -15.762,11.927 H 262.707 V 35.311 Z"
   id="path4008"
   inkscape:connector-curvature="0" />
					<path
   d="m 336.969,94.04 4.567,-12.619 h 34.655 l 5.033,13.263 c 5.284,0.081 10.568,0.159 15.853,0.237 L 369.933,24.022 h -22.742 l -26.254,69.809 c 5.345,0.064 10.688,0.135 16.032,0.209 z m 21.895,-59.582 13.837,36.845 h -27.555 z"
   id="path4010"
   inkscape:connector-curvature="0" />
					<path
   d="m 415.768,24.021 h 39.468 c 19.373,0 25.991,5.325 25.991,21.192 0,14.163 -2.768,17.997 -14.439,20.021 v 0.532 c 9.266,0.532 13.597,4.897 13.597,13.843 V 95.051 H 464.864 V 82.273 c 0,-4.473 -0.723,-6.816 -2.889,-8.626 -2.165,-1.704 -4.331,-2.236 -9.145,-2.236 h -21.66 v 23.641 h -15.402 z m 36.941,35.78 c 4.934,0 8.182,-0.745 9.987,-2.341 2.286,-1.812 2.888,-3.833 2.888,-9.905 0,-9.903 -1.926,-11.82 -11.792,-11.82 H 431.17 v 24.066 z"
   id="path4012"
   inkscape:connector-curvature="0" />
					<path
   d="m 518.278,64.702 h 7.221 l 29.242,30.104 c 6.53,0.021 13.061,0.063 19.591,0.103 L 538.614,58.737 571.102,24.022 H 552.09 l -26.592,28.966 h -7.221 V 24.021 h -15.401 v 71.03 h 15.401 V 64.702 Z"
   id="path4014"
   inkscape:connector-curvature="0" />
				</g>
				<g
   id="g4036">
					<g
   id="g4026">
						<path
   d="m 569.404,65.53 h -1.193 c 0.034,-1.228 0.445,-2.234 1.232,-3.022 0.787,-0.788 1.758,-1.182 2.914,-1.182 1.145,0 2.069,0.369 2.778,1.108 0.708,0.74 1.062,1.611 1.062,2.616 0,0.705 -0.169,1.366 -0.507,1.985 -0.336,0.618 -0.993,1.454 -1.965,2.509 l -3.1,3.338 h 5.74 v 1.201 h -8.45 l 4.753,-5.138 c 0.965,-1.033 1.592,-1.799 1.883,-2.298 0.29,-0.5 0.436,-1.025 0.436,-1.579 0,-0.7 -0.26,-1.303 -0.783,-1.808 -0.521,-0.504 -1.16,-0.757 -1.914,-0.757 -0.796,0 -1.457,0.264 -1.984,0.795 -0.528,0.529 -0.829,1.274 -0.902,2.232 z"
   id="path4018"
   inkscape:connector-curvature="0" />
						<path
   d="m 577.549,67.865 c 0,-1.642 0.177,-2.911 0.529,-3.806 0.353,-0.897 0.85,-1.577 1.493,-2.04 0.643,-0.462 1.361,-0.693 2.157,-0.693 0.807,0 1.537,0.232 2.191,0.698 0.655,0.465 1.17,1.164 1.552,2.093 0.381,0.932 0.571,2.181 0.571,3.748 0,1.561 -0.187,2.806 -0.563,3.73 -0.375,0.925 -0.894,1.623 -1.552,2.093 -0.661,0.472 -1.394,0.707 -2.2,0.707 -0.796,0 -1.512,-0.229 -2.148,-0.684 -0.638,-0.458 -1.134,-1.14 -1.494,-2.044 -0.355,-0.905 -0.536,-2.173 -0.536,-3.802 z m 1.177,0.021 c 0,1.404 0.126,2.467 0.376,3.187 0.251,0.72 0.623,1.266 1.112,1.638 0.491,0.373 1.011,0.559 1.557,0.559 0.554,0 1.07,-0.182 1.549,-0.546 0.479,-0.364 0.843,-0.909 1.09,-1.638 0.312,-0.886 0.467,-1.953 0.467,-3.199 0,-1.253 -0.138,-2.279 -0.415,-3.079 -0.276,-0.798 -0.659,-1.382 -1.146,-1.751 -0.487,-0.37 -1.003,-0.555 -1.544,-0.555 -0.552,0 -1.071,0.185 -1.557,0.555 -0.484,0.369 -0.854,0.914 -1.108,1.632 -0.253,0.722 -0.381,1.786 -0.381,3.197 z"
   id="path4020"
   inkscape:connector-curvature="0" />
						<path
   d="m 589.807,61.639 h 2.445 v 12.443 h -1.235 V 62.856 h -1.953 z"
   id="path4022"
   inkscape:connector-curvature="0" />
						<path
   d="m 603.582,61.326 h 0.251 v 8.678 h 1.507 v 1.184 h -1.507 v 2.894 h -1.234 v -2.894 h -5.955 z m -0.984,8.678 v -5.225 l -3.687,5.225 z"
   id="path4024"
   inkscape:connector-curvature="0" />
					</g>
					<g
   id="g4034">
						<path
   d="m 574.881,44.989 h 7.131 v 1.219 h -5.889 v 3.899 h 5.838 v 1.217 h -5.838 v 4.891 h 5.838 v 1.218 h -7.08 z"
   id="path4028"
   inkscape:connector-curvature="0" />
						<path
   d="m 582.875,55.115 1.058,-0.635 c 0.744,1.371 1.604,2.055 2.58,2.055 0.418,0 0.81,-0.096 1.176,-0.291 0.367,-0.195 0.646,-0.457 0.838,-0.783 0.192,-0.327 0.287,-0.674 0.287,-1.04 0,-0.418 -0.141,-0.828 -0.422,-1.227 -0.39,-0.554 -1.101,-1.219 -2.133,-1.997 -1.038,-0.784 -1.683,-1.351 -1.937,-1.701 -0.439,-0.586 -0.66,-1.221 -0.66,-1.903 0,-0.542 0.13,-1.035 0.39,-1.48 0.259,-0.445 0.623,-0.796 1.095,-1.054 0.472,-0.256 0.982,-0.383 1.536,-0.383 0.587,0 1.135,0.144 1.645,0.435 0.51,0.29 1.05,0.825 1.62,1.604 l -1.015,0.769 c -0.469,-0.621 -0.868,-1.029 -1.197,-1.227 -0.329,-0.197 -0.689,-0.295 -1.078,-0.295 -0.503,0 -0.912,0.151 -1.231,0.457 -0.319,0.304 -0.478,0.679 -0.478,1.125 0,0.271 0.056,0.532 0.169,0.787 0.112,0.252 0.318,0.53 0.617,0.829 0.163,0.158 0.698,0.572 1.608,1.243 1.076,0.795 1.815,1.503 2.216,2.124 0.401,0.621 0.601,1.244 0.601,1.87 0,0.902 -0.344,1.687 -1.027,2.352 -0.686,0.666 -1.52,0.999 -2.501,0.999 -0.755,0 -1.44,-0.202 -2.055,-0.606 -0.617,-0.404 -1.184,-1.08 -1.702,-2.027 z"
   id="path4030"
   inkscape:connector-curvature="0" />
						<path
   d="m 591.554,46.208 v -1.219 h 6.818 v 1.219 h -2.775 v 11.226 h -1.268 V 46.208 Z"
   id="path4032"
   inkscape:connector-curvature="0" />
					</g>
				</g>
			</g>
		</g>
	</g>
</g>
</svg>