<?xml version="1.0" encoding="utf-8"?>
<!-- Generator: Adobe Illustrator 15.1.0, SVG Export Plug-In . SVG Version: 6.00 Build 0)  -->
<!DOCTYPE svg PUBLIC "-//W3C//DTD SVG 1.1//EN" "http://www.w3.org/Graphics/SVG/1.1/DTD/svg11.dtd">
<svg version="1.1" id="Layer_1" xmlns="http://www.w3.org/2000/svg" xmlns:xlink="http://www.w3.org/1999/xlink" x="0px" y="0px"
	 width="612.195px" height="150.407px" viewBox="0 0 612.195 150.407" enable-background="new 0 0 612.195 150.407"
	 xml:space="preserve">
<g>
	<g>
		<g>
			<g>
				<path d="M73.732,132.512c-0.476,0-0.862-0.385-0.862-0.86V5.112c0-0.476,0.386-0.862,0.862-0.862s0.862,0.386,0.862,0.862
					v126.54C74.594,132.127,74.208,132.512,73.732,132.512z"/>
				<path d="M78.892,145.855c-0.476,0-0.862-0.386-0.862-0.862V18.454c0-0.476,0.386-0.862,0.862-0.862s0.862,0.386,0.862,0.862
					v126.539C79.754,145.469,79.368,145.855,78.892,145.855z"/>
			</g>
			<g>
				<path d="M146.037,73.335H19.497c-0.476,0-0.861-0.386-0.861-0.862c0-0.477,0.386-0.862,0.861-0.862h126.54
					c0.476,0,0.862,0.386,0.862,0.862C146.899,72.949,146.512,73.335,146.037,73.335z"/>
				<path d="M132.696,78.495H6.156c-0.476,0-0.861-0.385-0.861-0.861s0.386-0.862,0.861-0.862h126.54
					c0.476,0,0.862,0.386,0.862,0.862S133.172,78.495,132.696,78.495z"/>
			</g>
		</g>
		<g>
			<g>
				<path d="M34.251,114.112c-0.221,0-0.441-0.084-0.609-0.253c-0.337-0.337-0.337-0.881,0-1.218l89.477-89.478
					c0.336-0.336,0.882-0.336,1.218,0s0.336,0.882,0,1.219L34.86,113.859C34.691,114.028,34.471,114.112,34.251,114.112z"/>
				<path d="M28.465,127.193c-0.22,0-0.44-0.083-0.609-0.252c-0.336-0.337-0.336-0.882,0-1.218l89.477-89.478
					c0.337-0.337,0.882-0.337,1.219,0c0.336,0.336,0.336,0.882,0,1.219l-89.478,89.477C28.906,127.11,28.686,127.193,28.465,127.193
					z"/>
			</g>
			<g>
				<path d="M117.942,114.112c-0.22,0-0.44-0.084-0.609-0.253L27.856,24.382c-0.336-0.336-0.336-0.882,0-1.219s0.882-0.336,1.219,0
					l89.477,89.478c0.336,0.337,0.336,0.881,0,1.218C118.384,114.028,118.164,114.112,117.942,114.112z"/>
				<path d="M123.727,127.193c-0.22,0-0.44-0.083-0.609-0.252L33.641,37.464c-0.336-0.336-0.336-0.882,0-1.219
					c0.337-0.337,0.882-0.337,1.219,0l89.477,89.478c0.336,0.336,0.336,0.881,0,1.218
					C124.168,127.11,123.948,127.193,123.727,127.193z"/>
			</g>
		</g>
	</g>
	<g>
		<g>
			<path d="M152.835,118.018h3.486c1.944,0,3.26,0.085,3.95,0.258c1.039,0.257,1.884,0.81,2.535,1.654
				c0.65,0.846,0.976,1.886,0.976,3.122c0,1.031-0.224,1.938-0.672,2.718c-0.448,0.78-1.088,1.371-1.921,1.769
				c-0.833,0.4-1.983,0.604-3.451,0.613l6.294,8.782h-2.165l-6.294-8.782h-0.989v8.782h-1.749V118.018z M154.584,119.871v6.43
				l3.015,0.024c1.168,0,2.032-0.119,2.592-0.36c0.561-0.239,0.998-0.622,1.311-1.149c0.314-0.528,0.472-1.116,0.472-1.77
				c0-0.635-0.16-1.209-0.477-1.729c-0.318-0.519-0.735-0.89-1.251-1.113c-0.517-0.222-1.375-0.333-2.575-0.333H154.584z"/>
			<path d="M178.682,132.292l1.403,0.798c-0.46,0.978-0.992,1.767-1.596,2.366c-0.603,0.6-1.282,1.056-2.036,1.369
				c-0.755,0.313-1.608,0.47-2.561,0.47c-2.112,0-3.764-0.747-4.954-2.243c-1.192-1.496-1.787-3.188-1.787-5.075
				c0-1.773,0.504-3.354,1.512-4.743c1.278-1.767,2.99-2.65,5.133-2.65c2.207,0,3.97,0.906,5.288,2.713
				c0.937,1.279,1.413,2.874,1.429,4.784h-11.648c0.031,1.626,0.512,2.959,1.441,3.996c0.929,1.04,2.077,1.559,3.443,1.559
				c0.659,0,1.3-0.123,1.924-0.371c0.623-0.246,1.153-0.577,1.59-0.986S178.173,133.206,178.682,132.292z M178.682,128.525
				c-0.223-0.962-0.547-1.729-0.972-2.304c-0.425-0.572-0.986-1.035-1.686-1.389c-0.698-0.351-1.433-0.525-2.204-0.525
				c-1.271,0-2.363,0.44-3.276,1.324c-0.667,0.642-1.172,1.607-1.513,2.894H178.682z"/>
			<path d="M197.301,125.85l-1.321,0.886c-1.14-1.637-2.697-2.455-4.67-2.455c-1.577,0-2.886,0.548-3.928,1.644
				c-1.042,1.096-1.563,2.429-1.563,3.996c0,1.018,0.24,1.978,0.719,2.876c0.479,0.899,1.137,1.597,1.973,2.094
				c0.836,0.496,1.773,0.744,2.811,0.744c1.901,0,3.455-0.818,4.658-2.455l1.321,0.939c-0.619,1.006-1.45,1.786-2.493,2.344
				c-1.042,0.555-2.23,0.832-3.563,0.832c-2.046,0-3.744-0.703-5.093-2.109s-2.023-3.115-2.023-5.13
				c0-1.355,0.316-2.612,0.947-3.775c0.63-1.161,1.497-2.068,2.599-2.72c1.103-0.65,2.336-0.978,3.701-0.978
				c0.856,0,1.684,0.142,2.481,0.426c0.796,0.281,1.473,0.65,2.028,1.104C196.44,124.569,196.912,125.146,197.301,125.85z"/>
			<path d="M201.124,122.943h1.702v2.044c0.508-0.805,1.043-1.406,1.606-1.805c0.563-0.4,1.15-0.6,1.762-0.6
				c0.459,0,0.952,0.159,1.475,0.477l-0.868,1.517c-0.35-0.161-0.643-0.244-0.88-0.244c-0.556,0-1.091,0.246-1.607,0.74
				c-0.516,0.492-0.908,1.257-1.178,2.295c-0.206,0.798-0.309,2.408-0.309,4.835v4.732h-1.702V122.943z"/>
			<path d="M220.719,132.292l1.404,0.798c-0.46,0.978-0.992,1.767-1.596,2.366c-0.603,0.6-1.282,1.056-2.037,1.369
				c-0.755,0.313-1.608,0.47-2.561,0.47c-2.112,0-3.764-0.747-4.955-2.243s-1.787-3.188-1.787-5.075
				c0-1.773,0.505-3.354,1.512-4.743c1.278-1.767,2.99-2.65,5.134-2.65c2.207,0,3.969,0.906,5.287,2.713
				c0.937,1.279,1.414,2.874,1.429,4.784h-11.649c0.031,1.626,0.512,2.959,1.441,3.996c0.929,1.04,2.077,1.559,3.443,1.559
				c0.659,0,1.301-0.123,1.925-0.371c0.623-0.246,1.153-0.577,1.59-0.986C219.737,133.868,220.21,133.206,220.719,132.292z
				 M220.719,128.525c-0.223-0.962-0.547-1.729-0.972-2.304c-0.425-0.572-0.986-1.035-1.685-1.389
				c-0.699-0.351-1.434-0.525-2.204-0.525c-1.271,0-2.363,0.44-3.276,1.324c-0.667,0.642-1.172,1.607-1.513,2.894H220.719z"/>
			<path d="M239.659,122.943v13.991h-1.641v-2.404c-0.698,0.917-1.482,1.608-2.351,2.071c-0.868,0.463-1.818,0.693-2.85,0.693
				c-1.833,0-3.397-0.719-4.694-2.154s-1.946-3.183-1.946-5.239c0-2.016,0.655-3.737,1.963-5.171
				c1.31-1.432,2.883-2.147,4.724-2.147c1.063,0,2.025,0.244,2.886,0.734c0.861,0.487,1.616,1.221,2.267,2.198v-2.572H239.659z
				 M233.002,124.318c-0.927,0-1.783,0.249-2.567,0.741c-0.784,0.491-1.408,1.183-1.872,2.072c-0.463,0.891-0.695,1.834-0.695,2.827
				c0,0.984,0.233,1.926,0.7,2.824c0.468,0.899,1.096,1.6,1.884,2.101c0.789,0.501,1.634,0.751,2.537,0.751
				c0.912,0,1.776-0.248,2.592-0.744c0.816-0.497,1.444-1.168,1.883-2.016c0.44-0.848,0.661-1.802,0.661-2.864
				c0-1.619-0.493-2.973-1.479-4.06C235.659,124.864,234.445,124.318,233.002,124.318z"/>
			<path d="M245.764,117.748h1.666v5.195h2.641v1.557h-2.641v12.435h-1.666V124.5h-2.272v-1.557h2.272V117.748z"/>
			<path d="M254.399,117.182c0.379,0,0.704,0.146,0.971,0.438c0.27,0.29,0.404,0.642,0.404,1.053c0,0.403-0.134,0.752-0.404,1.043
				c-0.267,0.29-0.591,0.436-0.971,0.436c-0.371,0-0.692-0.146-0.959-0.436c-0.27-0.291-0.403-0.64-0.403-1.043
				c0-0.411,0.134-0.763,0.403-1.053C253.708,117.328,254.028,117.182,254.399,117.182z M253.573,122.943h1.665v13.991h-1.665
				V122.943z"/>
			<path d="M266.115,122.583c1.995,0,3.648,0.781,4.959,2.342c1.191,1.423,1.788,3.106,1.788,5.052c0,1.955-0.631,3.664-1.89,5.126
				c-1.259,1.461-2.879,2.192-4.857,2.192c-1.986,0-3.609-0.731-4.87-2.192c-1.258-1.462-1.889-3.171-1.889-5.126
				c0-1.937,0.596-3.616,1.788-5.04C262.456,123.368,264.112,122.583,266.115,122.583z M266.109,124.345
				c-1.385,0-2.575,0.553-3.57,1.659c-0.996,1.105-1.493,2.442-1.493,4.013c0,1.011,0.227,1.954,0.681,2.829
				c0.453,0.874,1.067,1.55,1.839,2.023c0.771,0.477,1.619,0.714,2.543,0.714c0.923,0,1.771-0.237,2.544-0.714
				c0.772-0.474,1.383-1.149,1.838-2.023c0.454-0.875,0.68-1.818,0.68-2.829c0-1.57-0.499-2.907-1.497-4.013
				C268.674,124.898,267.486,124.345,266.109,124.345z"/>
			<path d="M277.182,122.943h1.665v2.507c0.667-0.959,1.405-1.677,2.213-2.153c0.81-0.475,1.691-0.714,2.643-0.714
				c0.968,0,1.827,0.267,2.575,0.799c0.75,0.53,1.304,1.246,1.66,2.146c0.357,0.899,0.535,2.302,0.535,4.205v7.201h-1.664v-6.674
				c0-1.612-0.063-2.688-0.187-3.227c-0.192-0.926-0.563-1.624-1.11-2.092c-0.547-0.467-1.261-0.699-2.143-0.699
				c-1.006,0-1.909,0.359-2.706,1.08c-0.797,0.72-1.323,1.612-1.577,2.675c-0.16,0.693-0.239,1.963-0.239,3.806v5.131h-1.665
				V122.943z"/>
			<path d="M306.138,122.943v13.991h-1.643v-2.404c-0.698,0.917-1.482,1.608-2.35,2.071c-0.869,0.463-1.819,0.693-2.849,0.693
				c-1.833,0-3.397-0.719-4.695-2.154c-1.297-1.436-1.946-3.183-1.946-5.239c0-2.016,0.655-3.737,1.965-5.171
				c1.31-1.432,2.883-2.147,4.722-2.147c1.063,0,2.025,0.244,2.886,0.734c0.861,0.487,1.617,1.221,2.267,2.198v-2.572H306.138z
				 M299.48,124.318c-0.927,0-1.783,0.249-2.567,0.741c-0.783,0.491-1.409,1.183-1.872,2.072c-0.462,0.891-0.694,1.834-0.694,2.827
				c0,0.984,0.233,1.926,0.701,2.824c0.467,0.899,1.096,1.6,1.884,2.101c0.788,0.501,1.633,0.751,2.536,0.751
				c0.913,0,1.776-0.248,2.592-0.744c0.816-0.497,1.443-1.168,1.883-2.016c0.441-0.848,0.66-1.802,0.66-2.864
				c0-1.619-0.493-2.973-1.479-4.06C302.136,124.864,300.922,124.318,299.48,124.318z"/>
			<path d="M311.02,117.542h1.666v19.392h-1.666V117.542z"/>
			<path d="M338.848,129.938l1.186,1.358c-0.762,0.729-1.482,1.357-2.168,1.887c0.478,0.475,1.099,1.123,1.863,1.95
				c0.605,0.651,1.123,1.25,1.56,1.801h-2.44l-2.321-2.585c-1.459,1.27-2.644,2.098-3.557,2.481c-0.911,0.388-1.876,0.58-2.89,0.58
				c-1.349,0-2.433-0.419-3.248-1.255c-0.819-0.837-1.227-1.881-1.227-3.134c0-0.941,0.275-1.887,0.826-2.835
				s1.674-2.146,3.371-3.594c-0.958-1.253-1.574-2.177-1.849-2.771c-0.272-0.595-0.409-1.163-0.409-1.704
				c0-0.941,0.338-1.722,1.012-2.339c0.776-0.718,1.744-1.078,2.902-1.078c0.729,0,1.397,0.158,1.999,0.474
				c0.603,0.318,1.063,0.745,1.381,1.282c0.316,0.534,0.476,1.103,0.476,1.701c0,0.636-0.207,1.311-0.619,2.026
				c-0.414,0.716-1.229,1.631-2.442,2.746l2.653,3.008l1.737,1.906C337.58,131.104,338.314,130.468,338.848,129.938z
				 M330.958,128.02c-1.487,1.21-2.462,2.171-2.924,2.887c-0.46,0.716-0.69,1.38-0.69,1.988c0,0.72,0.281,1.357,0.847,1.91
				c0.564,0.555,1.256,0.829,2.074,0.829c0.619,0,1.228-0.136,1.822-0.411c0.939-0.437,2.014-1.179,3.225-2.228l-2.76-3.073
				C332.076,129.381,331.544,128.749,330.958,128.02z M331.17,125.515c0.851-0.712,1.49-1.409,1.918-2.096
				c0.303-0.49,0.454-0.922,0.454-1.3c0-0.436-0.198-0.813-0.591-1.131c-0.395-0.318-0.918-0.477-1.569-0.477
				c-0.621,0-1.125,0.163-1.516,0.489c-0.389,0.327-0.583,0.712-0.583,1.156c0,0.345,0.078,0.664,0.237,0.967
				C329.912,123.851,330.461,124.649,331.17,125.515z"/>
			<path d="M352.433,136.934l2.507-18.916h0.284l7.116,15.521l7.048-15.521h0.279l2.518,18.916h-1.713l-1.729-13.528l-6.189,13.528
				h-0.447l-6.261-13.631l-1.721,13.631H352.433z"/>
			<path d="M387.427,132.292l1.404,0.798c-0.46,0.978-0.992,1.767-1.596,2.366s-1.282,1.056-2.037,1.369
				c-0.755,0.313-1.607,0.47-2.561,0.47c-2.111,0-3.764-0.747-4.954-2.243c-1.191-1.496-1.786-3.188-1.786-5.075
				c0-1.773,0.504-3.354,1.512-4.743c1.279-1.767,2.989-2.65,5.134-2.65c2.207,0,3.97,0.906,5.288,2.713
				c0.937,1.279,1.412,2.874,1.429,4.784h-11.649c0.031,1.626,0.513,2.959,1.442,3.996c0.928,1.04,2.075,1.559,3.443,1.559
				c0.657,0,1.299-0.123,1.923-0.371c0.624-0.246,1.154-0.577,1.59-0.986C386.447,133.868,386.919,133.206,387.427,132.292z
				 M387.427,128.525c-0.222-0.962-0.546-1.729-0.971-2.304c-0.425-0.572-0.987-1.035-1.685-1.389
				c-0.7-0.351-1.435-0.525-2.205-0.525c-1.271,0-2.363,0.44-3.275,1.324c-0.668,0.642-1.172,1.607-1.514,2.894H387.427z"/>
			<path d="M406.379,117.542v19.392h-1.644v-2.404c-0.697,0.917-1.481,1.608-2.348,2.071c-0.869,0.463-1.818,0.693-2.851,0.693
				c-1.832,0-3.397-0.719-4.694-2.154s-1.944-3.183-1.944-5.239c0-2.016,0.654-3.737,1.962-5.171
				c1.309-1.432,2.884-2.147,4.725-2.147c1.063,0,2.024,0.244,2.885,0.734c0.861,0.487,1.617,1.221,2.266,2.198v-7.973H406.379z
				 M399.722,124.318c-0.927,0-1.782,0.249-2.567,0.741c-0.785,0.491-1.408,1.183-1.872,2.072c-0.464,0.891-0.694,1.834-0.694,2.827
				c0,0.984,0.232,1.926,0.7,2.824c0.467,0.899,1.096,1.6,1.884,2.101s1.634,0.751,2.537,0.751c0.912,0,1.776-0.248,2.593-0.744
				c0.815-0.497,1.443-1.168,1.883-2.016s0.659-1.802,0.659-2.864c0-1.619-0.494-2.973-1.48-4.06S401.165,124.318,399.722,124.318z"
				/>
			<path d="M412.141,117.182c0.379,0,0.704,0.146,0.972,0.438c0.271,0.29,0.402,0.642,0.402,1.053c0,0.403-0.132,0.752-0.402,1.043
				c-0.268,0.29-0.593,0.436-0.972,0.436c-0.369,0-0.69-0.146-0.957-0.436c-0.271-0.291-0.405-0.64-0.405-1.043
				c0-0.411,0.134-0.763,0.405-1.053C411.451,117.328,411.772,117.182,412.141,117.182z M411.316,122.943h1.665v13.991h-1.665
				V122.943z"/>
			<path d="M430.282,125.85l-1.321,0.886c-1.142-1.637-2.696-2.455-4.67-2.455c-1.577,0-2.887,0.548-3.928,1.644
				c-1.042,1.096-1.562,2.429-1.562,3.996c0,1.018,0.239,1.978,0.718,2.876c0.479,0.899,1.137,1.597,1.974,2.094
				c0.835,0.496,1.772,0.744,2.809,0.744c1.902,0,3.455-0.818,4.659-2.455l1.321,0.939c-0.619,1.006-1.448,1.786-2.493,2.344
				c-1.043,0.555-2.229,0.832-3.563,0.832c-2.046,0-3.743-0.703-5.092-2.109s-2.023-3.115-2.023-5.13
				c0-1.355,0.316-2.612,0.946-3.775c0.631-1.161,1.497-2.068,2.6-2.72c1.102-0.65,2.337-0.978,3.701-0.978
				c0.855,0,1.685,0.142,2.481,0.426c0.797,0.281,1.472,0.65,2.027,1.104C429.421,124.569,429.893,125.146,430.282,125.85z"/>
			<path d="M447.017,122.943v13.991h-1.641v-2.404c-0.698,0.917-1.481,1.608-2.349,2.071c-0.87,0.463-1.82,0.693-2.851,0.693
				c-1.832,0-3.396-0.719-4.694-2.154s-1.946-3.183-1.946-5.239c0-2.016,0.656-3.737,1.965-5.171
				c1.31-1.432,2.884-2.147,4.722-2.147c1.063,0,2.025,0.244,2.887,0.734c0.859,0.487,1.615,1.221,2.267,2.198v-2.572H447.017z
				 M440.361,124.318c-0.925,0-1.783,0.249-2.566,0.741c-0.784,0.491-1.41,1.183-1.872,2.072c-0.463,0.891-0.695,1.834-0.695,2.827
				c0,0.984,0.235,1.926,0.702,2.824c0.468,0.899,1.095,1.6,1.884,2.101c0.788,0.501,1.635,0.751,2.537,0.751
				c0.911,0,1.773-0.248,2.59-0.744c0.815-0.497,1.443-1.168,1.885-2.016c0.439-0.848,0.658-1.802,0.658-2.864
				c0-1.619-0.492-2.973-1.479-4.06C443.019,124.864,441.802,124.318,440.361,124.318z"/>
			<path d="M451.903,117.542h1.665v19.392h-1.665V117.542z"/>
			<path d="M466.486,136.934v-18.916h3.629c2.618,0,4.518,0.227,5.7,0.683c1.697,0.642,3.024,1.756,3.979,3.344
				c0.956,1.585,1.435,3.475,1.435,5.669c0,1.896-0.379,3.563-1.136,5.003c-0.759,1.44-1.742,2.502-2.951,3.188
				s-2.906,1.029-5.088,1.029H466.486z M468.165,135.147h2.023c2.417,0,4.096-0.163,5.033-0.487c1.315-0.463,2.352-1.297,3.104-2.5
				c0.754-1.204,1.131-2.675,1.131-4.413c0-1.825-0.407-3.384-1.226-4.679c-0.816-1.292-1.956-2.178-3.413-2.659
				c-1.096-0.359-2.899-0.538-5.415-0.538h-1.237V135.147z"/>
			<path d="M486.457,117.182c0.379,0,0.702,0.146,0.972,0.438c0.268,0.29,0.402,0.642,0.402,1.053c0,0.403-0.135,0.752-0.402,1.043
				c-0.27,0.29-0.593,0.436-0.972,0.436c-0.372,0-0.693-0.146-0.961-0.436c-0.267-0.291-0.402-0.64-0.402-1.043
				c0-0.411,0.136-0.763,0.402-1.053C485.763,117.328,486.084,117.182,486.457,117.182z M485.627,122.943h1.668v13.991h-1.668
				V122.943z"/>
			<path d="M498.671,124.473l-1.071,1.196c-0.891-0.936-1.76-1.402-2.61-1.402c-0.543,0-1.005,0.194-1.392,0.579
				c-0.386,0.387-0.579,0.836-0.579,1.351c0,0.454,0.159,0.888,0.478,1.3c0.318,0.418,0.985,0.912,2.004,1.478
				c1.24,0.693,2.081,1.362,2.527,2.007c0.438,0.65,0.656,1.384,0.656,2.198c0,1.149-0.375,2.122-1.12,2.918
				c-0.747,0.799-1.683,1.197-2.801,1.197c-0.749,0-1.46-0.175-2.139-0.528c-0.679-0.351-1.241-0.834-1.688-1.451l1.048-1.286
				c0.851,1.035,1.753,1.555,2.707,1.555c0.667,0,1.237-0.23,1.707-0.693c0.467-0.463,0.702-1.009,0.702-1.633
				c0-0.515-0.155-0.973-0.466-1.378c-0.31-0.394-1.009-0.89-2.098-1.491c-1.17-0.651-1.965-1.293-2.385-1.928
				c-0.421-0.636-0.633-1.36-0.633-2.174c0-1.063,0.337-1.946,1.007-2.648c0.673-0.704,1.521-1.056,2.547-1.056
				C496.263,122.583,497.463,123.213,498.671,124.473z"/>
			<path d="M502.9,122.943h1.663v2.572c0.659-0.978,1.417-1.711,2.272-2.198c0.855-0.49,1.81-0.734,2.865-0.734
				c1.836,0,3.41,0.716,4.717,2.147c1.31,1.434,1.963,3.155,1.963,5.171c0,2.057-0.649,3.804-1.944,5.239s-2.857,2.154-4.689,2.154
				c-1.03,0-1.977-0.23-2.842-0.693c-0.861-0.463-1.644-1.154-2.342-2.071v7.523H502.9V122.943z M509.563,124.318
				c-1.441,0-2.656,0.546-3.639,1.633c-0.986,1.087-1.479,2.44-1.479,4.06c0,1.063,0.222,2.017,0.659,2.864
				c0.439,0.848,1.068,1.519,1.887,2.016c0.821,0.496,1.685,0.744,2.596,0.744c0.893,0,1.734-0.25,2.522-0.751
				c0.786-0.501,1.414-1.201,1.881-2.101c0.468-0.898,0.7-1.84,0.7-2.824c0-0.993-0.23-1.937-0.693-2.827
				c-0.465-0.89-1.088-1.581-1.872-2.072C511.342,124.567,510.488,124.318,509.563,124.318z"/>
			<path d="M531.523,132.292l1.405,0.798c-0.461,0.978-0.993,1.767-1.598,2.366c-0.603,0.6-1.281,1.056-2.037,1.369
				c-0.754,0.313-1.606,0.47-2.56,0.47c-2.111,0-3.765-0.747-4.954-2.243c-1.191-1.496-1.786-3.188-1.786-5.075
				c0-1.773,0.504-3.354,1.511-4.743c1.279-1.767,2.99-2.65,5.135-2.65c2.206,0,3.969,0.906,5.287,2.713
				c0.937,1.279,1.413,2.874,1.43,4.784h-11.649c0.03,1.626,0.513,2.959,1.441,3.996c0.929,1.04,2.076,1.559,3.444,1.559
				c0.657,0,1.299-0.123,1.923-0.371c0.623-0.246,1.153-0.577,1.591-0.986C530.542,133.868,531.014,133.206,531.523,132.292z
				 M531.523,128.525c-0.224-0.962-0.545-1.729-0.972-2.304c-0.426-0.572-0.986-1.035-1.685-1.389
				c-0.7-0.351-1.436-0.525-2.205-0.525c-1.27,0-2.362,0.44-3.276,1.324c-0.667,0.642-1.172,1.607-1.513,2.894H531.523z"/>
			<path d="M537.596,122.943h1.665v2.507c0.668-0.959,1.404-1.677,2.214-2.153c0.809-0.475,1.689-0.714,2.642-0.714
				c0.967,0,1.827,0.267,2.576,0.799c0.748,0.53,1.302,1.246,1.659,2.146c0.355,0.899,0.535,2.302,0.535,4.205v7.201h-1.664v-6.674
				c0-1.612-0.063-2.688-0.188-3.227c-0.191-0.926-0.562-1.624-1.109-2.092c-0.547-0.467-1.262-0.699-2.143-0.699
				c-1.007,0-1.911,0.359-2.706,1.08c-0.798,0.72-1.323,1.612-1.579,2.675c-0.158,0.693-0.237,1.963-0.237,3.806v5.131h-1.665
				V122.943z"/>
			<path d="M560.232,124.473l-1.072,1.196c-0.89-0.936-1.76-1.402-2.611-1.402c-0.542,0-1.004,0.194-1.391,0.579
				c-0.386,0.387-0.578,0.836-0.578,1.351c0,0.454,0.157,0.888,0.477,1.3c0.318,0.418,0.986,0.912,2.004,1.478
				c1.239,0.693,2.081,1.362,2.528,2.007c0.436,0.65,0.655,1.384,0.655,2.198c0,1.149-0.375,2.122-1.121,2.918
				c-0.747,0.799-1.682,1.197-2.8,1.197c-0.748,0-1.46-0.175-2.139-0.528c-0.679-0.351-1.241-0.834-1.688-1.451l1.048-1.286
				c0.851,1.035,1.753,1.555,2.707,1.555c0.666,0,1.236-0.23,1.706-0.693c0.468-0.463,0.702-1.009,0.702-1.633
				c0-0.515-0.153-0.973-0.465-1.378c-0.309-0.394-1.009-0.89-2.098-1.491c-1.169-0.651-1.964-1.293-2.386-1.928
				c-0.42-0.636-0.631-1.36-0.631-2.174c0-1.063,0.336-1.946,1.006-2.648c0.672-0.704,1.521-1.056,2.546-1.056
				C557.823,122.583,559.022,123.213,560.232,124.473z"/>
			<path d="M577.132,122.943v13.991h-1.642v-2.404c-0.697,0.917-1.48,1.608-2.348,2.071c-0.87,0.463-1.82,0.693-2.851,0.693
				c-1.833,0-3.397-0.719-4.694-2.154c-1.298-1.436-1.946-3.183-1.946-5.239c0-2.016,0.656-3.737,1.964-5.171
				c1.31-1.432,2.885-2.147,4.723-2.147c1.063,0,2.025,0.244,2.886,0.734c0.86,0.487,1.616,1.221,2.267,2.198v-2.572H577.132z
				 M570.476,124.318c-0.926,0-1.784,0.249-2.567,0.741c-0.783,0.491-1.409,1.183-1.871,2.072c-0.463,0.891-0.695,1.834-0.695,2.827
				c0,0.984,0.234,1.926,0.702,2.824c0.468,0.899,1.095,1.6,1.883,2.101s1.635,0.751,2.537,0.751c0.912,0,1.773-0.248,2.59-0.744
				c0.816-0.497,1.444-1.168,1.886-2.016c0.439-0.848,0.658-1.802,0.658-2.864c0-1.619-0.493-2.973-1.479-4.06
				C573.134,124.864,571.917,124.318,570.476,124.318z"/>
			<path d="M581.829,122.943h1.702v2.044c0.508-0.805,1.045-1.406,1.607-1.805c0.562-0.4,1.15-0.6,1.76-0.6
				c0.461,0,0.954,0.159,1.478,0.477l-0.87,1.517c-0.35-0.161-0.643-0.244-0.879-0.244c-0.556,0-1.091,0.246-1.607,0.74
				c-0.516,0.492-0.909,1.257-1.179,2.295c-0.207,0.798-0.31,2.408-0.31,4.835v4.732h-1.702V122.943z"/>
			<path d="M590.767,122.943h1.762l4.448,10.775l4.32-10.775h1.774l-7.722,19.11h-1.76l2.492-6.18L590.767,122.943z"/>
		</g>
		<g>
			<g>
				<path d="M606.922,111.072H148.983c-0.949,0-1.718-0.769-1.718-1.717s0.769-1.718,1.718-1.718h457.939
					c0.948,0,1.718,0.77,1.718,1.718S607.871,111.072,606.922,111.072z"/>
			</g>
			<g>
				<g>
					<path d="M210.009,95.016c5.86-0.723,9.125-2.125,12.05-4.649c3.61-3.196,4.933-7.774,4.933-17.147
						c0-11.5-3.489-16.292-13.597-18.316c-3.128-0.64-6.377-0.957-14.92-1.384l-2.889-0.107l-3.008-0.105l-2.888-0.212
						c-2.768-0.107-4.934-0.32-6.137-0.64c-4.211-1.065-5.655-3.301-5.655-9.053c0-7.667,3.128-9.263,17.568-9.263
						c12.153,0,14.801,1.704,14.801,9.158v1.489h14.8v-2.769c0-7.347-2.286-12.352-6.858-15.12
						c-4.573-2.664-10.108-3.516-23.826-3.516c-14.319,0-20.696,1.066-25.509,4.26c-4.332,2.769-6.378,7.986-6.378,16.399
						c0,12.459,4.212,17.679,15.884,19.488c2.768,0.427,4.933,0.64,13.717,1.064l2.768,0.107l2.768,0.212l2.888,0.107
						c3.009,0.212,5.415,0.425,6.618,0.852c3.37,0.957,4.693,3.193,4.693,8.093c0,9.158-2.286,10.755-15.763,10.755
						c-13.116,0-14.8-0.32-16.846-2.664c-1.685-1.81-2.046-3.621-2.166-9.476h-14.8v1.702c0.12,2.876,0.12,4.58,0.481,6.496
						c0.962,7.029,4.211,11.075,10.829,13.099c3.971,1.277,9.626,1.81,19.975,1.81c3.556,0,6.628-0.044,9.318-0.147
						C205.243,95.359,207.625,95.169,210.009,95.016z"/>
					<path d="M256.097,93.375c2.204,0.001,4.407,0.021,6.61,0.024V72.155h17.93c14.319-0.212,13.957-0.212,16.846-0.959
						c10.107-2.341,13.958-8.731,13.958-23.001c0-6.494-0.722-11.074-2.286-14.163c-3.008-5.962-8.784-9.265-16.967-9.797
						c-2.887-0.212-4.453-0.212-11.07-0.212h-33.812v69.587c2.511-0.043,5.023-0.06,7.535-0.09
						C255.229,93.428,255.646,93.375,256.097,93.375z M262.708,35.311h18.891c5.656,0,7.101,0.105,8.905,0.638
						c4.211,1.279,5.293,3.94,5.293,12.566c0,10.33-2.045,11.927-15.762,11.927h-17.328V35.311z"/>
					<path d="M336.969,94.04l4.567-12.619h34.655l5.033,13.263c5.284,0.081,10.568,0.159,15.853,0.237l-27.144-70.899h-22.742
						l-26.254,69.809C326.282,93.895,331.625,93.966,336.969,94.04z M358.864,34.458l13.837,36.845h-27.555L358.864,34.458z"/>
					<path d="M415.768,24.021h39.468c19.373,0,25.991,5.325,25.991,21.192c0,14.163-2.768,17.997-14.439,20.021v0.532
						c9.266,0.532,13.597,4.897,13.597,13.843v15.442h-15.521V82.273c0-4.473-0.723-6.816-2.889-8.626
						c-2.165-1.704-4.331-2.236-9.145-2.236H431.17v23.641h-15.402V24.021z M452.709,59.801c4.934,0,8.182-0.745,9.987-2.341
						c2.286-1.812,2.888-3.833,2.888-9.905c0-9.903-1.926-11.82-11.792-11.82H431.17v24.066H452.709z"/>
					<path d="M518.278,64.702h7.221l29.242,30.104c6.53,0.021,13.061,0.063,19.591,0.103l-35.718-36.172l32.488-34.715H552.09
						l-26.592,28.966h-7.221V24.021h-15.401v71.03h15.401V64.702z"/>
				</g>
				<g>
					<g>
						<path d="M569.404,65.53h-1.193c0.034-1.228,0.445-2.234,1.232-3.022c0.787-0.788,1.758-1.182,2.914-1.182
							c1.145,0,2.069,0.369,2.778,1.108c0.708,0.74,1.062,1.611,1.062,2.616c0,0.705-0.169,1.366-0.507,1.985
							c-0.336,0.618-0.993,1.454-1.965,2.509l-3.1,3.338h5.74v1.201h-8.45l4.753-5.138c0.965-1.033,1.592-1.799,1.883-2.298
							c0.29-0.5,0.436-1.025,0.436-1.579c0-0.7-0.26-1.303-0.783-1.808c-0.521-0.504-1.16-0.757-1.914-0.757
							c-0.796,0-1.457,0.264-1.984,0.795C569.778,63.827,569.477,64.572,569.404,65.53z"/>
						<path d="M577.549,67.865c0-1.642,0.177-2.911,0.529-3.806c0.353-0.897,0.85-1.577,1.493-2.04
							c0.643-0.462,1.361-0.693,2.157-0.693c0.807,0,1.537,0.232,2.191,0.698c0.655,0.465,1.17,1.164,1.552,2.093
							c0.381,0.932,0.571,2.181,0.571,3.748c0,1.561-0.187,2.806-0.563,3.73c-0.375,0.925-0.894,1.623-1.552,2.093
							c-0.661,0.472-1.394,0.707-2.2,0.707c-0.796,0-1.512-0.229-2.148-0.684c-0.638-0.458-1.134-1.14-1.494-2.044
							C577.73,70.762,577.549,69.494,577.549,67.865z M578.726,67.886c0,1.404,0.126,2.467,0.376,3.187
							c0.251,0.72,0.623,1.266,1.112,1.638c0.491,0.373,1.011,0.559,1.557,0.559c0.554,0,1.07-0.182,1.549-0.546
							c0.479-0.364,0.843-0.909,1.09-1.638c0.312-0.886,0.467-1.953,0.467-3.199c0-1.253-0.138-2.279-0.415-3.079
							c-0.276-0.798-0.659-1.382-1.146-1.751c-0.487-0.37-1.003-0.555-1.544-0.555c-0.552,0-1.071,0.185-1.557,0.555
							c-0.484,0.369-0.854,0.914-1.108,1.632C578.854,65.411,578.726,66.475,578.726,67.886z"/>
						<path d="M589.807,61.639h2.445v12.443h-1.235V62.856h-1.953L589.807,61.639z"/>
						<path d="M603.582,61.326h0.251v8.678h1.507v1.184h-1.507v2.894h-1.234v-2.894h-5.955L603.582,61.326z M602.598,70.004v-5.225
							l-3.687,5.225H602.598z"/>
					</g>
					<g>
						<path d="M574.881,44.989h7.131v1.219h-5.889v3.899h5.838v1.217h-5.838v4.891h5.838v1.218h-7.08V44.989z"/>
						<path d="M582.875,55.115l1.058-0.635c0.744,1.371,1.604,2.055,2.58,2.055c0.418,0,0.81-0.096,1.176-0.291
							c0.367-0.195,0.646-0.457,0.838-0.783c0.192-0.327,0.287-0.674,0.287-1.04c0-0.418-0.141-0.828-0.422-1.227
							c-0.39-0.554-1.101-1.219-2.133-1.997c-1.038-0.784-1.683-1.351-1.937-1.701c-0.439-0.586-0.66-1.221-0.66-1.903
							c0-0.542,0.13-1.035,0.39-1.48c0.259-0.445,0.623-0.796,1.095-1.054c0.472-0.256,0.982-0.383,1.536-0.383
							c0.587,0,1.135,0.144,1.645,0.435c0.51,0.29,1.05,0.825,1.62,1.604l-1.015,0.769c-0.469-0.621-0.868-1.029-1.197-1.227
							c-0.329-0.197-0.689-0.295-1.078-0.295c-0.503,0-0.912,0.151-1.231,0.457c-0.319,0.304-0.478,0.679-0.478,1.125
							c0,0.271,0.056,0.532,0.169,0.787c0.112,0.252,0.318,0.53,0.617,0.829c0.163,0.158,0.698,0.572,1.608,1.243
							c1.076,0.795,1.815,1.503,2.216,2.124s0.601,1.244,0.601,1.87c0,0.902-0.344,1.687-1.027,2.352
							c-0.686,0.666-1.52,0.999-2.501,0.999c-0.755,0-1.44-0.202-2.055-0.606C583.96,56.738,583.393,56.062,582.875,55.115z"/>
						<path d="M591.554,46.208v-1.219h6.818v1.219h-2.775v11.226h-1.268V46.208H591.554z"/>
					</g>
				</g>
			</g>
		</g>
	</g>
</g>
</svg>
