<svg id="Layer_1" data-name="Layer 1" xmlns="http://www.w3.org/2000/svg" xmlns:xlink="http://www.w3.org/1999/xlink" viewBox="0 0 360 144"><defs><style>.cls-1{fill:none;clip-rule:evenodd;}.cls-2{clip-path:url(#clip-path);}.cls-3{clip-path:url(#clip-path-2);}.cls-4{clip-path:url(#clip-path-3);}.cls-5{fill:#cd2f32;}</style><clipPath id="clip-path"><polygon class="cls-1" points="-272.46 33.67 -306.6 33.67 -289.35 62.73 -272.46 33.67"/></clipPath><clipPath id="clip-path-2"><polygon class="cls-1" points="-363.7 33.67 -317.71 111.51 -299.3 79.85 -326.71 33.67 -363.7 33.67"/></clipPath><clipPath id="clip-path-3"><path class="cls-1" d="M-267.65,33.1h15.39c13.39,0,20.17,8,20.17,18.65s-6.78,18.65-20.17,18.65h-15.39Zm10,8V62.37h4.34c8.08,0,11.06-4.77,11.06-10.62s-3-10.63-11.06-10.63Z"/></clipPath></defs><path class="cls-5" d="M46.7,29.86H64.19l6.33,60.56,4.6-39.57v-21H87.68L74.79,115.12H59.7L54.56,76.76l-5.9,38.36H33.58L20.79,29.86H38.5l7,60.56,5.35-34.87Zm56.94,77c2.74,0,3.5-2.3,3.5-14.32l12-3.06h1.2c-.54,10.16-2,17.38-6.77,22.19-2.52,2.51-5.59,4.26-10.94,4.26a14.18,14.18,0,0,1-10.82-4.26c-4.92-4.81-6.78-11.81-6.78-29.3s1.86-24.59,6.78-29.4a14.14,14.14,0,0,1,10.82-4.27c5.35,0,8.42,1.75,10.94,4.27,4.8,4.81,6.88,11.8,6.88,29.4v1.42L100,87.91v3.71C100,103.65,100.7,106.82,103.64,106.82Zm1.76-28.64V72.93c0-12-.55-15.09-2.74-15.09S100,60.91,100,72.93v6.34Zm17.7,23.06-.21-5.68,12.57-4h.43l.66,10.49c.21,3.82,1.2,5.57,2.95,5.57,2,0,2.95-1.75,2.95-6.45,0-6-1.09-8.52-6.89-12.79C126.39,81.56,123,77.3,123,67.9c0-12.24,4.81-19.24,17.27-19.24,10.06,0,13.89,5.14,14.22,14.43l.1,3.61L143,70.2h-.43L142,62.54C141.69,58,141,57,139.5,57s-2.08,1.86-2.08,6.23c0,4.92.87,7,7.43,11.48,8.86,6.12,12.14,11,12.14,23.5,0,11.7-6.23,17.71-18.14,17.71C127.8,115.89,123.43,110.75,123.1,101.24Zm52.69-44.6V92c0,9.84,1.64,14.43,6.45,21.86v1l-14.54.76c-5.24-7-7-11.91-7-23.06V56.64h-3.5l-.66-7h4.16V33.57l15.08-1.3V49.65h8.74l10.94-.44,5.35,47L205,69.1l-3.17-19.67h15l5,46.78,3.5-30.49V49.43h10.16l-9.94,65.69H211.75L208,87.47l-4.26,27.65H190l-8.63-58.48Zm59.47,25.69c0-17.6,2.07-24.59,6.77-29.4,2.52-2.52,5.59-4.27,11.05-4.27s8.41,1.75,10.93,4.27c4.81,4.81,6.67,11.8,6.67,29.4s-1.86,24.49-6.67,29.3c-2.52,2.51-5.58,4.26-10.93,4.26s-8.53-1.75-11.05-4.26C237.33,106.82,235.26,99.82,235.26,82.33Zm20.33,8.86V73.37c0-12.25-.33-15.31-2.51-15.31s-2.63,3.06-2.63,15.31V91.19c0,12.24.33,15.3,2.63,15.3S255.59,103.43,255.59,91.19ZM274,115.12V60.79l-1.08-10.93L289,49.21v9.18c2.73-6,6.12-9.4,12-9.4V66.26H300A14.14,14.14,0,0,0,289,64.4v50.72Zm48-85.26,16.17-1.75v76.08l1.09,10.93H323v-5.57c-2.08,3.71-5.14,6.34-9,6.34-6.89,0-11.26-5.36-11.26-23.39V78.61c0-16.07,1.74-21.75,6-26.12,2.4-2.52,5.9-3.28,9.18-3.28a18.23,18.23,0,0,1,5,.87v-9.4Zm-2.19,73.46c.87.87,2.08.76,3.28.33V59.27a3.29,3.29,0,0,0-2.85,1c-1.74,1.64-2.4,4.7-2.4,18.15v7.86C317.79,100.26,318.45,102,319.76,103.32Z"/></svg>